%TF.GenerationSoftware,KiCad,Pcbnew,8.0.1*%
%TF.CreationDate,2024-04-03T08:14:29+10:00*%
%TF.ProjectId,Asus ATX USB PS2 Breakout,41737573-2041-4545-9820-555342205053,rev?*%
%TF.SameCoordinates,Original*%
%TF.FileFunction,Copper,L2,Bot*%
%TF.FilePolarity,Positive*%
%FSLAX46Y46*%
G04 Gerber Fmt 4.6, Leading zero omitted, Abs format (unit mm)*
G04 Created by KiCad (PCBNEW 8.0.1) date 2024-04-03 08:14:29*
%MOMM*%
%LPD*%
G01*
G04 APERTURE LIST*
%ADD10C,0.300000*%
%TA.AperFunction,NonConductor*%
%ADD11C,0.300000*%
%TD*%
%TA.AperFunction,ComponentPad*%
%ADD12R,1.600000X1.500000*%
%TD*%
%TA.AperFunction,ComponentPad*%
%ADD13C,1.600000*%
%TD*%
%TA.AperFunction,ComponentPad*%
%ADD14C,3.000000*%
%TD*%
%TA.AperFunction,ComponentPad*%
%ADD15C,2.900000*%
%TD*%
%TA.AperFunction,ConnectorPad*%
%ADD16C,5.000000*%
%TD*%
%TA.AperFunction,ComponentPad*%
%ADD17C,1.473200*%
%TD*%
%TA.AperFunction,ComponentPad*%
%ADD18C,2.870200*%
%TD*%
%TA.AperFunction,ComponentPad*%
%ADD19R,1.600000X1.600000*%
%TD*%
%TA.AperFunction,ComponentPad*%
%ADD20O,2.000000X3.500000*%
%TD*%
%TA.AperFunction,ComponentPad*%
%ADD21O,4.000000X2.000000*%
%TD*%
%TA.AperFunction,ComponentPad*%
%ADD22R,1.700000X1.700000*%
%TD*%
%TA.AperFunction,ComponentPad*%
%ADD23O,1.700000X1.700000*%
%TD*%
%TA.AperFunction,ComponentPad*%
%ADD24C,1.700000*%
%TD*%
%TA.AperFunction,ViaPad*%
%ADD25C,0.800000*%
%TD*%
%TA.AperFunction,Conductor*%
%ADD26C,0.200000*%
%TD*%
G04 APERTURE END LIST*
D10*
D11*
X122445489Y-108800828D02*
X122445489Y-107300828D01*
X122445489Y-107300828D02*
X121945489Y-108372257D01*
X121945489Y-108372257D02*
X121445489Y-107300828D01*
X121445489Y-107300828D02*
X121445489Y-108800828D01*
X120731203Y-108800828D02*
X120731203Y-107300828D01*
X120731203Y-107300828D02*
X120159774Y-107300828D01*
X120159774Y-107300828D02*
X120016917Y-107372257D01*
X120016917Y-107372257D02*
X119945488Y-107443685D01*
X119945488Y-107443685D02*
X119874060Y-107586542D01*
X119874060Y-107586542D02*
X119874060Y-107800828D01*
X119874060Y-107800828D02*
X119945488Y-107943685D01*
X119945488Y-107943685D02*
X120016917Y-108015114D01*
X120016917Y-108015114D02*
X120159774Y-108086542D01*
X120159774Y-108086542D02*
X120731203Y-108086542D01*
X119445488Y-107300828D02*
X118588346Y-107300828D01*
X119016917Y-108800828D02*
X119016917Y-107300828D01*
X118088346Y-108800828D02*
X118088346Y-107300828D01*
X118088346Y-107300828D02*
X117231203Y-108800828D01*
X117231203Y-108800828D02*
X117231203Y-107300828D01*
D12*
%TO.P,J4,1,VBUS*%
%TO.N,+5V*%
X189174000Y-81306000D03*
D13*
%TO.P,J4,2,D-*%
%TO.N,Net-(J4-D-)*%
X186674000Y-81306000D03*
%TO.P,J4,3,D+*%
%TO.N,Net-(J4-D+)*%
X184674000Y-81306000D03*
%TO.P,J4,4,GND*%
%TO.N,GND*%
X182174000Y-81306000D03*
D14*
%TO.P,J4,5,Shield*%
X192244000Y-78596000D03*
X179104000Y-78596000D03*
%TD*%
D15*
%TO.P,H1,1,1*%
%TO.N,GND*%
X117348000Y-73914000D03*
D16*
X117348000Y-73914000D03*
%TD*%
D15*
%TO.P,H2,1,1*%
%TO.N,GND*%
X198628000Y-73914000D03*
D16*
X198628000Y-73914000D03*
%TD*%
D17*
%TO.P,J3,1*%
%TO.N,/IR_TX*%
X129870200Y-76911200D03*
%TO.P,J3,2*%
%TO.N,/IR_RX*%
X132461000Y-76911200D03*
%TO.P,J3,3*%
%TO.N,unconnected-(J3-Pad3)*%
X127812800Y-76911200D03*
%TO.P,J3,4*%
%TO.N,GND*%
X129870200Y-79400400D03*
%TO.P,J3,5*%
%TO.N,unconnected-(J3-Pad5)*%
X134518400Y-76911200D03*
%TO.P,J3,6*%
%TO.N,unconnected-(J3-Pad6)*%
X127812800Y-79400400D03*
%TO.P,J3,7*%
%TO.N,+5V*%
X131978400Y-79400400D03*
%TO.P,J3,8*%
%TO.N,unconnected-(J3-Pad8)*%
X134518400Y-79400400D03*
D18*
%TO.P,J3,9*%
%TO.N,N/C*%
X131165600Y-73101200D03*
%TO.P,J3,10*%
X124409200Y-73914000D03*
%TO.P,J3,11*%
X137922000Y-73914000D03*
%TD*%
D19*
%TO.P,J2,1*%
%TO.N,Net-(C1-Pad1)*%
X148404000Y-76802000D03*
D13*
%TO.P,J2,2*%
%TO.N,unconnected-(J2-Pad2)*%
X151004000Y-76802000D03*
%TO.P,J2,3*%
%TO.N,GND*%
X146304000Y-76802000D03*
%TO.P,J2,4*%
%TO.N,+5V*%
X153104000Y-76802000D03*
%TO.P,J2,5*%
%TO.N,Net-(J2-Pad5)*%
X146304000Y-79602000D03*
%TO.P,J2,6*%
%TO.N,unconnected-(J2-Pad6)*%
X153104000Y-79602000D03*
D20*
%TO.P,J2,7*%
%TO.N,N/C*%
X156554000Y-73952000D03*
D21*
X149704000Y-73152000D03*
D20*
X142854000Y-73952000D03*
%TD*%
D12*
%TO.P,J1,1,VBUS*%
%TO.N,+5V*%
X171394000Y-81306000D03*
D13*
%TO.P,J1,2,D-*%
%TO.N,Net-(J1-D-)*%
X168894000Y-81306000D03*
%TO.P,J1,3,D+*%
%TO.N,Net-(J1-D+)*%
X166894000Y-81306000D03*
%TO.P,J1,4,GND*%
%TO.N,GND*%
X164394000Y-81306000D03*
D14*
%TO.P,J1,5,Shield*%
X174464000Y-78596000D03*
X161324000Y-78596000D03*
%TD*%
D22*
%TO.P,J6,1,Pin_1*%
%TO.N,+5V*%
X198374000Y-86614000D03*
D23*
%TO.P,J6,2,Pin_2*%
%TO.N,/USB1_D-*%
X198374000Y-89154000D03*
%TO.P,J6,3,Pin_3*%
%TO.N,/USB1_D+*%
X198374000Y-91694000D03*
%TO.P,J6,4,Pin_4*%
%TO.N,GND*%
X198374000Y-94234000D03*
%TO.P,J6,5,Pin_5*%
%TO.N,unconnected-(J6-Pin_5-Pad5)*%
X198374000Y-96774000D03*
%TO.P,J6,6,Pin_6*%
%TO.N,/MOUSE_CLK*%
X198374000Y-99314000D03*
%TO.P,J6,7,Pin_7*%
%TO.N,GND*%
X198374000Y-101854000D03*
%TO.P,J6,8,Pin_8*%
%TO.N,unconnected-(J6-Pin_8-Pad8)*%
X198374000Y-104394000D03*
%TO.P,J6,9,Pin_9*%
%TO.N,+5V*%
X198374000Y-106934000D03*
D24*
%TO.P,J6,10,Pin_10*%
X195834000Y-86614000D03*
D23*
%TO.P,J6,11,Pin_11*%
%TO.N,/USB2_D-*%
X195834000Y-89154000D03*
%TO.P,J6,12,Pin_12*%
%TO.N,/USB2_D+*%
X195834000Y-91694000D03*
%TO.P,J6,13,Pin_13*%
%TO.N,GND*%
X195834000Y-94234000D03*
%TO.P,J6,14,Pin_14*%
%TO.N,unconnected-(J6-Pin_14-Pad14)*%
X195834000Y-96774000D03*
%TO.P,J6,15,Pin_15*%
%TO.N,/MOUSE_DATA*%
X195834000Y-99314000D03*
%TO.P,J6,16,Pin_16*%
%TO.N,GND*%
X195834000Y-101854000D03*
%TO.P,J6,17,Pin_17*%
%TO.N,/IR_RX*%
X195834000Y-104394000D03*
%TO.P,J6,18,Pin_18*%
%TO.N,/IR_TX*%
X195834000Y-106934000D03*
%TD*%
D25*
%TO.N,/USB1_D-*%
X186182000Y-91948000D03*
%TO.N,/USB1_D+*%
X186182000Y-92964000D03*
%TD*%
D26*
%TO.N,/USB1_D+*%
X197104000Y-92964000D02*
X186182000Y-92964000D01*
X198374000Y-91694000D02*
X197104000Y-92964000D01*
%TO.N,/USB1_D-*%
X193953654Y-91948000D02*
X186182000Y-91948000D01*
X195357654Y-90544000D02*
X193953654Y-91948000D01*
X196984000Y-90544000D02*
X195357654Y-90544000D01*
X198374000Y-89154000D02*
X196984000Y-90544000D01*
%TD*%
%TA.AperFunction,Conductor*%
%TO.N,GND*%
G36*
X197908075Y-101661007D02*
G01*
X197874000Y-101788174D01*
X197874000Y-101919826D01*
X197908075Y-102046993D01*
X197940988Y-102104000D01*
X196267012Y-102104000D01*
X196299925Y-102046993D01*
X196334000Y-101919826D01*
X196334000Y-101788174D01*
X196299925Y-101661007D01*
X196267012Y-101604000D01*
X197940988Y-101604000D01*
X197908075Y-101661007D01*
G37*
%TD.AperFunction*%
%TA.AperFunction,Conductor*%
G36*
X197908075Y-94041007D02*
G01*
X197874000Y-94168174D01*
X197874000Y-94299826D01*
X197908075Y-94426993D01*
X197940988Y-94484000D01*
X196267012Y-94484000D01*
X196299925Y-94426993D01*
X196334000Y-94299826D01*
X196334000Y-94168174D01*
X196299925Y-94041007D01*
X196267012Y-93984000D01*
X197940988Y-93984000D01*
X197908075Y-94041007D01*
G37*
%TD.AperFunction*%
%TA.AperFunction,Conductor*%
G36*
X128884834Y-77691204D02*
G01*
X128929181Y-77719705D01*
X129071970Y-77862494D01*
X129249287Y-77986653D01*
X129249288Y-77986653D01*
X129249289Y-77986654D01*
X129371611Y-78043694D01*
X129424050Y-78089866D01*
X129443202Y-78157060D01*
X129422986Y-78223941D01*
X129371611Y-78268458D01*
X129249538Y-78325382D01*
X129190249Y-78366895D01*
X129754998Y-78931644D01*
X129683923Y-78950689D01*
X129573877Y-79014224D01*
X129484024Y-79104077D01*
X129420489Y-79214123D01*
X129401444Y-79285198D01*
X128878455Y-78762209D01*
X128864562Y-78745652D01*
X128764093Y-78602169D01*
X128611034Y-78449110D01*
X128611030Y-78449106D01*
X128433713Y-78324947D01*
X128433712Y-78324946D01*
X128433710Y-78324945D01*
X128312572Y-78268458D01*
X128311979Y-78268181D01*
X128259541Y-78222010D01*
X128240389Y-78154816D01*
X128260605Y-78087935D01*
X128311979Y-78043418D01*
X128433713Y-77986653D01*
X128611030Y-77862494D01*
X128753819Y-77719705D01*
X128815142Y-77686220D01*
X128884834Y-77691204D01*
G37*
%TD.AperFunction*%
%TA.AperFunction,Conductor*%
G36*
X131214412Y-77221603D02*
G01*
X131268290Y-77266088D01*
X131285375Y-77303499D01*
X131294062Y-77335922D01*
X131294064Y-77335926D01*
X131294065Y-77335930D01*
X131309690Y-77369437D01*
X131385545Y-77532110D01*
X131385546Y-77532112D01*
X131385547Y-77532113D01*
X131509706Y-77709430D01*
X131662770Y-77862494D01*
X131797922Y-77957128D01*
X131841544Y-78011703D01*
X131848737Y-78081202D01*
X131817215Y-78143556D01*
X131758890Y-78178476D01*
X131553675Y-78233463D01*
X131553668Y-78233466D01*
X131357489Y-78324945D01*
X131285631Y-78375261D01*
X131180170Y-78449106D01*
X131180168Y-78449107D01*
X131180165Y-78449110D01*
X131027109Y-78602166D01*
X131027104Y-78602172D01*
X130983005Y-78665151D01*
X130928427Y-78708775D01*
X130913041Y-78711111D01*
X130338955Y-79285197D01*
X130319911Y-79214123D01*
X130256376Y-79104077D01*
X130166523Y-79014224D01*
X130056477Y-78950689D01*
X129985402Y-78931644D01*
X130550150Y-78366895D01*
X130550149Y-78366894D01*
X130490865Y-78325384D01*
X130368788Y-78268458D01*
X130316349Y-78222286D01*
X130297197Y-78155092D01*
X130317413Y-78088211D01*
X130368789Y-78043694D01*
X130437393Y-78011703D01*
X130491113Y-77986653D01*
X130668430Y-77862494D01*
X130821494Y-77709430D01*
X130945653Y-77532113D01*
X131037135Y-77335930D01*
X131045825Y-77303499D01*
X131082190Y-77243839D01*
X131145036Y-77213309D01*
X131214412Y-77221603D01*
G37*
%TD.AperFunction*%
%TA.AperFunction,Conductor*%
G36*
X202635039Y-68607685D02*
G01*
X202680794Y-68660489D01*
X202692000Y-68712000D01*
X202692000Y-111886000D01*
X202672315Y-111953039D01*
X202619511Y-111998794D01*
X202568000Y-112010000D01*
X113408000Y-112010000D01*
X113340961Y-111990315D01*
X113295206Y-111937511D01*
X113284000Y-111886000D01*
X113284000Y-106642803D01*
X116573178Y-106642803D01*
X116573178Y-109458853D01*
X123102150Y-109458853D01*
X123102150Y-106642803D01*
X116573178Y-106642803D01*
X113284000Y-106642803D01*
X113284000Y-92964000D01*
X185276540Y-92964000D01*
X185296326Y-93152256D01*
X185296327Y-93152259D01*
X185354818Y-93332277D01*
X185354821Y-93332284D01*
X185449467Y-93496216D01*
X185576128Y-93636887D01*
X185576129Y-93636888D01*
X185729265Y-93748148D01*
X185729270Y-93748151D01*
X185902192Y-93825142D01*
X185902197Y-93825144D01*
X186087354Y-93864500D01*
X186087355Y-93864500D01*
X186276644Y-93864500D01*
X186276646Y-93864500D01*
X186461803Y-93825144D01*
X186634730Y-93748151D01*
X186787871Y-93636888D01*
X186816109Y-93605527D01*
X186875595Y-93568879D01*
X186908258Y-93564500D01*
X194461992Y-93564500D01*
X194529031Y-93584185D01*
X194574786Y-93636989D01*
X194584730Y-93706147D01*
X194574374Y-93740905D01*
X194560569Y-93770507D01*
X194560567Y-93770513D01*
X194503364Y-93983999D01*
X194503364Y-93984000D01*
X195400988Y-93984000D01*
X195368075Y-94041007D01*
X195334000Y-94168174D01*
X195334000Y-94299826D01*
X195368075Y-94426993D01*
X195400988Y-94484000D01*
X194503364Y-94484000D01*
X194560567Y-94697486D01*
X194560570Y-94697492D01*
X194660399Y-94911578D01*
X194795894Y-95105082D01*
X194962917Y-95272105D01*
X195148595Y-95402119D01*
X195192219Y-95456696D01*
X195199412Y-95526195D01*
X195167890Y-95588549D01*
X195148595Y-95605269D01*
X194962594Y-95735508D01*
X194795505Y-95902597D01*
X194659965Y-96096169D01*
X194659964Y-96096171D01*
X194560098Y-96310335D01*
X194560094Y-96310344D01*
X194498938Y-96538586D01*
X194498936Y-96538596D01*
X194478341Y-96773999D01*
X194478341Y-96774000D01*
X194498936Y-97009403D01*
X194498938Y-97009413D01*
X194560094Y-97237655D01*
X194560096Y-97237659D01*
X194560097Y-97237663D01*
X194564000Y-97246032D01*
X194659965Y-97451830D01*
X194659967Y-97451834D01*
X194768281Y-97606521D01*
X194795501Y-97645396D01*
X194795506Y-97645402D01*
X194962597Y-97812493D01*
X194962603Y-97812498D01*
X195148158Y-97942425D01*
X195191783Y-97997002D01*
X195198977Y-98066500D01*
X195167454Y-98128855D01*
X195148158Y-98145575D01*
X194962597Y-98275505D01*
X194795505Y-98442597D01*
X194659965Y-98636169D01*
X194659964Y-98636171D01*
X194560098Y-98850335D01*
X194560094Y-98850344D01*
X194498938Y-99078586D01*
X194498936Y-99078596D01*
X194478341Y-99313999D01*
X194478341Y-99314000D01*
X194498936Y-99549403D01*
X194498938Y-99549413D01*
X194560094Y-99777655D01*
X194560096Y-99777659D01*
X194560097Y-99777663D01*
X194564000Y-99786032D01*
X194659965Y-99991830D01*
X194659967Y-99991834D01*
X194768281Y-100146521D01*
X194795501Y-100185396D01*
X194795506Y-100185402D01*
X194962597Y-100352493D01*
X194962603Y-100352498D01*
X195148594Y-100482730D01*
X195192219Y-100537307D01*
X195199413Y-100606805D01*
X195167890Y-100669160D01*
X195148595Y-100685880D01*
X194962922Y-100815890D01*
X194962920Y-100815891D01*
X194795891Y-100982920D01*
X194795886Y-100982926D01*
X194660400Y-101176420D01*
X194660399Y-101176422D01*
X194560570Y-101390507D01*
X194560567Y-101390513D01*
X194503364Y-101603999D01*
X194503364Y-101604000D01*
X195400988Y-101604000D01*
X195368075Y-101661007D01*
X195334000Y-101788174D01*
X195334000Y-101919826D01*
X195368075Y-102046993D01*
X195400988Y-102104000D01*
X194503364Y-102104000D01*
X194560567Y-102317486D01*
X194560570Y-102317492D01*
X194660399Y-102531578D01*
X194795894Y-102725082D01*
X194962917Y-102892105D01*
X195148595Y-103022119D01*
X195192219Y-103076696D01*
X195199412Y-103146195D01*
X195167890Y-103208549D01*
X195148595Y-103225269D01*
X194962594Y-103355508D01*
X194795505Y-103522597D01*
X194659965Y-103716169D01*
X194659964Y-103716171D01*
X194560098Y-103930335D01*
X194560094Y-103930344D01*
X194498938Y-104158586D01*
X194498936Y-104158596D01*
X194478341Y-104393999D01*
X194478341Y-104394000D01*
X194498936Y-104629403D01*
X194498938Y-104629413D01*
X194560094Y-104857655D01*
X194560096Y-104857659D01*
X194560097Y-104857663D01*
X194564000Y-104866032D01*
X194659965Y-105071830D01*
X194659967Y-105071834D01*
X194768281Y-105226521D01*
X194795501Y-105265396D01*
X194795506Y-105265402D01*
X194962597Y-105432493D01*
X194962603Y-105432498D01*
X195148158Y-105562425D01*
X195191783Y-105617002D01*
X195198977Y-105686500D01*
X195167454Y-105748855D01*
X195148158Y-105765575D01*
X194962597Y-105895505D01*
X194795505Y-106062597D01*
X194659965Y-106256169D01*
X194659964Y-106256171D01*
X194560098Y-106470335D01*
X194560094Y-106470344D01*
X194498938Y-106698586D01*
X194498936Y-106698596D01*
X194478341Y-106933999D01*
X194478341Y-106934000D01*
X194498936Y-107169403D01*
X194498938Y-107169413D01*
X194560094Y-107397655D01*
X194560096Y-107397659D01*
X194560097Y-107397663D01*
X194564000Y-107406032D01*
X194659965Y-107611830D01*
X194659967Y-107611834D01*
X194768281Y-107766521D01*
X194795505Y-107805401D01*
X194962599Y-107972495D01*
X195059384Y-108040265D01*
X195156165Y-108108032D01*
X195156167Y-108108033D01*
X195156170Y-108108035D01*
X195370337Y-108207903D01*
X195598592Y-108269063D01*
X195786918Y-108285539D01*
X195833999Y-108289659D01*
X195834000Y-108289659D01*
X195834001Y-108289659D01*
X195873234Y-108286226D01*
X196069408Y-108269063D01*
X196297663Y-108207903D01*
X196511830Y-108108035D01*
X196705401Y-107972495D01*
X196872495Y-107805401D01*
X197002425Y-107619842D01*
X197057002Y-107576217D01*
X197126500Y-107569023D01*
X197188855Y-107600546D01*
X197205575Y-107619842D01*
X197335500Y-107805395D01*
X197335505Y-107805401D01*
X197502599Y-107972495D01*
X197599384Y-108040265D01*
X197696165Y-108108032D01*
X197696167Y-108108033D01*
X197696170Y-108108035D01*
X197910337Y-108207903D01*
X198138592Y-108269063D01*
X198326918Y-108285539D01*
X198373999Y-108289659D01*
X198374000Y-108289659D01*
X198374001Y-108289659D01*
X198413234Y-108286226D01*
X198609408Y-108269063D01*
X198837663Y-108207903D01*
X199051830Y-108108035D01*
X199245401Y-107972495D01*
X199412495Y-107805401D01*
X199548035Y-107611830D01*
X199647903Y-107397663D01*
X199709063Y-107169408D01*
X199729659Y-106934000D01*
X199709063Y-106698592D01*
X199647903Y-106470337D01*
X199548035Y-106256171D01*
X199542425Y-106248158D01*
X199412494Y-106062597D01*
X199245402Y-105895506D01*
X199245396Y-105895501D01*
X199059842Y-105765575D01*
X199016217Y-105710998D01*
X199009023Y-105641500D01*
X199040546Y-105579145D01*
X199059842Y-105562425D01*
X199082026Y-105546891D01*
X199245401Y-105432495D01*
X199412495Y-105265401D01*
X199548035Y-105071830D01*
X199647903Y-104857663D01*
X199709063Y-104629408D01*
X199729659Y-104394000D01*
X199709063Y-104158592D01*
X199647903Y-103930337D01*
X199548035Y-103716171D01*
X199542425Y-103708158D01*
X199412494Y-103522597D01*
X199245402Y-103355506D01*
X199245401Y-103355505D01*
X199059405Y-103225269D01*
X199015781Y-103170692D01*
X199008588Y-103101193D01*
X199040110Y-103038839D01*
X199059405Y-103022119D01*
X199245082Y-102892105D01*
X199412105Y-102725082D01*
X199547600Y-102531578D01*
X199647429Y-102317492D01*
X199647432Y-102317486D01*
X199704636Y-102104000D01*
X198807012Y-102104000D01*
X198839925Y-102046993D01*
X198874000Y-101919826D01*
X198874000Y-101788174D01*
X198839925Y-101661007D01*
X198807012Y-101604000D01*
X199704636Y-101604000D01*
X199704635Y-101603999D01*
X199647432Y-101390513D01*
X199647429Y-101390507D01*
X199547600Y-101176422D01*
X199547599Y-101176420D01*
X199412113Y-100982926D01*
X199412108Y-100982920D01*
X199245078Y-100815890D01*
X199059405Y-100685879D01*
X199015780Y-100631302D01*
X199008588Y-100561804D01*
X199040110Y-100499449D01*
X199059406Y-100482730D01*
X199245401Y-100352495D01*
X199412495Y-100185401D01*
X199548035Y-99991830D01*
X199647903Y-99777663D01*
X199709063Y-99549408D01*
X199729659Y-99314000D01*
X199709063Y-99078592D01*
X199647903Y-98850337D01*
X199548035Y-98636171D01*
X199542425Y-98628158D01*
X199412494Y-98442597D01*
X199245402Y-98275506D01*
X199245396Y-98275501D01*
X199059842Y-98145575D01*
X199016217Y-98090998D01*
X199009023Y-98021500D01*
X199040546Y-97959145D01*
X199059842Y-97942425D01*
X199082026Y-97926891D01*
X199245401Y-97812495D01*
X199412495Y-97645401D01*
X199548035Y-97451830D01*
X199647903Y-97237663D01*
X199709063Y-97009408D01*
X199729659Y-96774000D01*
X199709063Y-96538592D01*
X199647903Y-96310337D01*
X199548035Y-96096171D01*
X199542425Y-96088158D01*
X199412494Y-95902597D01*
X199245402Y-95735506D01*
X199245401Y-95735505D01*
X199059405Y-95605269D01*
X199015781Y-95550692D01*
X199008588Y-95481193D01*
X199040110Y-95418839D01*
X199059405Y-95402119D01*
X199245082Y-95272105D01*
X199412105Y-95105082D01*
X199547600Y-94911578D01*
X199647429Y-94697492D01*
X199647432Y-94697486D01*
X199704636Y-94484000D01*
X198807012Y-94484000D01*
X198839925Y-94426993D01*
X198874000Y-94299826D01*
X198874000Y-94168174D01*
X198839925Y-94041007D01*
X198807012Y-93984000D01*
X199704636Y-93984000D01*
X199704635Y-93983999D01*
X199647432Y-93770513D01*
X199647429Y-93770507D01*
X199547600Y-93556422D01*
X199547599Y-93556420D01*
X199412113Y-93362926D01*
X199412108Y-93362920D01*
X199245078Y-93195890D01*
X199059405Y-93065879D01*
X199015780Y-93011302D01*
X199008588Y-92941804D01*
X199040110Y-92879449D01*
X199059406Y-92862730D01*
X199183635Y-92775744D01*
X199245401Y-92732495D01*
X199412495Y-92565401D01*
X199548035Y-92371830D01*
X199647903Y-92157663D01*
X199709063Y-91929408D01*
X199729659Y-91694000D01*
X199709063Y-91458592D01*
X199647903Y-91230337D01*
X199548035Y-91016171D01*
X199412495Y-90822599D01*
X199412494Y-90822597D01*
X199245402Y-90655506D01*
X199245396Y-90655501D01*
X199059842Y-90525575D01*
X199016217Y-90470998D01*
X199009023Y-90401500D01*
X199040546Y-90339145D01*
X199059842Y-90322425D01*
X199082026Y-90306891D01*
X199245401Y-90192495D01*
X199412495Y-90025401D01*
X199548035Y-89831830D01*
X199647903Y-89617663D01*
X199709063Y-89389408D01*
X199729659Y-89154000D01*
X199709063Y-88918592D01*
X199647903Y-88690337D01*
X199548035Y-88476171D01*
X199542424Y-88468158D01*
X199412496Y-88282600D01*
X199412493Y-88282597D01*
X199290567Y-88160671D01*
X199257084Y-88099351D01*
X199262068Y-88029659D01*
X199303939Y-87973725D01*
X199334915Y-87956810D01*
X199466331Y-87907796D01*
X199581546Y-87821546D01*
X199667796Y-87706331D01*
X199718091Y-87571483D01*
X199724500Y-87511873D01*
X199724499Y-85716128D01*
X199718091Y-85656517D01*
X199716810Y-85653083D01*
X199667797Y-85521671D01*
X199667793Y-85521664D01*
X199581547Y-85406455D01*
X199581544Y-85406452D01*
X199466335Y-85320206D01*
X199466328Y-85320202D01*
X199331482Y-85269908D01*
X199331483Y-85269908D01*
X199271883Y-85263501D01*
X199271881Y-85263500D01*
X199271873Y-85263500D01*
X199271864Y-85263500D01*
X197476129Y-85263500D01*
X197476123Y-85263501D01*
X197416516Y-85269908D01*
X197281671Y-85320202D01*
X197281664Y-85320206D01*
X197166455Y-85406452D01*
X197166452Y-85406455D01*
X197080206Y-85521664D01*
X197080203Y-85521669D01*
X197031189Y-85653083D01*
X196989317Y-85709016D01*
X196923853Y-85733433D01*
X196855580Y-85718581D01*
X196827326Y-85697430D01*
X196705402Y-85575506D01*
X196705395Y-85575501D01*
X196511834Y-85439967D01*
X196511830Y-85439965D01*
X196511828Y-85439964D01*
X196297663Y-85340097D01*
X196297659Y-85340096D01*
X196297655Y-85340094D01*
X196069413Y-85278938D01*
X196069403Y-85278936D01*
X195834001Y-85258341D01*
X195833999Y-85258341D01*
X195598596Y-85278936D01*
X195598586Y-85278938D01*
X195370344Y-85340094D01*
X195370335Y-85340098D01*
X195156171Y-85439964D01*
X195156169Y-85439965D01*
X194962597Y-85575505D01*
X194795505Y-85742597D01*
X194659965Y-85936169D01*
X194659964Y-85936171D01*
X194560098Y-86150335D01*
X194560094Y-86150344D01*
X194498938Y-86378586D01*
X194498936Y-86378596D01*
X194478341Y-86613999D01*
X194478341Y-86614000D01*
X194498936Y-86849403D01*
X194498938Y-86849413D01*
X194560094Y-87077655D01*
X194560096Y-87077659D01*
X194560097Y-87077663D01*
X194644499Y-87258663D01*
X194659965Y-87291830D01*
X194659967Y-87291834D01*
X194795501Y-87485395D01*
X194795506Y-87485402D01*
X194962597Y-87652493D01*
X194962603Y-87652498D01*
X195148158Y-87782425D01*
X195191783Y-87837002D01*
X195198977Y-87906500D01*
X195167454Y-87968855D01*
X195148158Y-87985575D01*
X194962597Y-88115505D01*
X194795505Y-88282597D01*
X194659965Y-88476169D01*
X194659964Y-88476171D01*
X194560098Y-88690335D01*
X194560094Y-88690344D01*
X194498938Y-88918586D01*
X194498936Y-88918596D01*
X194478341Y-89153999D01*
X194478341Y-89154000D01*
X194498936Y-89389403D01*
X194498938Y-89389413D01*
X194560094Y-89617655D01*
X194560096Y-89617659D01*
X194560097Y-89617663D01*
X194659965Y-89831830D01*
X194659967Y-89831834D01*
X194795501Y-90025395D01*
X194795506Y-90025402D01*
X194823580Y-90053476D01*
X194857065Y-90114799D01*
X194852081Y-90184491D01*
X194823580Y-90228838D01*
X193741238Y-91311181D01*
X193679915Y-91344666D01*
X193653557Y-91347500D01*
X186908258Y-91347500D01*
X186841219Y-91327815D01*
X186816109Y-91306473D01*
X186787871Y-91275112D01*
X186787864Y-91275106D01*
X186634734Y-91163851D01*
X186634729Y-91163848D01*
X186461807Y-91086857D01*
X186461802Y-91086855D01*
X186316001Y-91055865D01*
X186276646Y-91047500D01*
X186087354Y-91047500D01*
X186054897Y-91054398D01*
X185902197Y-91086855D01*
X185902192Y-91086857D01*
X185729270Y-91163848D01*
X185729265Y-91163851D01*
X185576129Y-91275111D01*
X185449466Y-91415785D01*
X185354821Y-91579715D01*
X185354818Y-91579722D01*
X185296327Y-91759740D01*
X185296326Y-91759744D01*
X185276540Y-91948000D01*
X185296326Y-92136256D01*
X185296327Y-92136259D01*
X185354820Y-92316283D01*
X185399690Y-92394001D01*
X185416162Y-92461901D01*
X185399690Y-92517999D01*
X185354820Y-92595716D01*
X185296327Y-92775740D01*
X185296326Y-92775744D01*
X185276540Y-92964000D01*
X113284000Y-92964000D01*
X113284000Y-81306002D01*
X163089034Y-81306002D01*
X163108858Y-81532599D01*
X163108860Y-81532610D01*
X163167730Y-81752317D01*
X163167735Y-81752331D01*
X163263863Y-81958478D01*
X163314974Y-82031472D01*
X163931449Y-81414997D01*
X163951370Y-81489343D01*
X164013905Y-81597657D01*
X164102343Y-81686095D01*
X164210657Y-81748630D01*
X164285002Y-81768550D01*
X163668526Y-82385025D01*
X163741513Y-82436132D01*
X163741521Y-82436136D01*
X163947668Y-82532264D01*
X163947682Y-82532269D01*
X164167389Y-82591139D01*
X164167400Y-82591141D01*
X164393998Y-82610966D01*
X164394002Y-82610966D01*
X164620599Y-82591141D01*
X164620610Y-82591139D01*
X164840317Y-82532269D01*
X164840331Y-82532264D01*
X165046478Y-82436136D01*
X165119471Y-82385024D01*
X164502997Y-81768550D01*
X164577343Y-81748630D01*
X164685657Y-81686095D01*
X164774095Y-81597657D01*
X164836630Y-81489343D01*
X164856550Y-81414997D01*
X165473024Y-82031471D01*
X165524134Y-81958481D01*
X165531340Y-81943028D01*
X165577511Y-81890587D01*
X165644704Y-81871433D01*
X165711585Y-81891646D01*
X165756105Y-81943022D01*
X165763430Y-81958730D01*
X165763432Y-81958734D01*
X165893954Y-82145141D01*
X166054858Y-82306045D01*
X166054861Y-82306047D01*
X166241266Y-82436568D01*
X166447504Y-82532739D01*
X166667308Y-82591635D01*
X166829230Y-82605801D01*
X166893998Y-82611468D01*
X166894000Y-82611468D01*
X166894002Y-82611468D01*
X166950673Y-82606509D01*
X167120692Y-82591635D01*
X167340496Y-82532739D01*
X167546734Y-82436568D01*
X167733139Y-82306047D01*
X167806320Y-82232865D01*
X167867641Y-82199382D01*
X167937333Y-82204366D01*
X167981679Y-82232865D01*
X168054861Y-82306047D01*
X168241266Y-82436568D01*
X168447504Y-82532739D01*
X168667308Y-82591635D01*
X168829230Y-82605801D01*
X168893998Y-82611468D01*
X168894000Y-82611468D01*
X168894002Y-82611468D01*
X168950673Y-82606509D01*
X169120692Y-82591635D01*
X169340496Y-82532739D01*
X169546734Y-82436568D01*
X169733139Y-82306047D01*
X169894047Y-82145139D01*
X169894055Y-82145127D01*
X169895010Y-82143990D01*
X169895569Y-82143617D01*
X169897876Y-82141311D01*
X169898339Y-82141774D01*
X169953173Y-82105277D01*
X170023034Y-82104154D01*
X170082411Y-82140979D01*
X170106197Y-82180344D01*
X170150202Y-82298328D01*
X170150206Y-82298335D01*
X170236452Y-82413544D01*
X170236455Y-82413547D01*
X170351664Y-82499793D01*
X170351671Y-82499797D01*
X170486517Y-82550091D01*
X170486516Y-82550091D01*
X170493444Y-82550835D01*
X170546127Y-82556500D01*
X172241872Y-82556499D01*
X172301483Y-82550091D01*
X172436331Y-82499796D01*
X172551546Y-82413546D01*
X172637796Y-82298331D01*
X172688091Y-82163483D01*
X172694500Y-82103873D01*
X172694500Y-81306002D01*
X180869034Y-81306002D01*
X180888858Y-81532599D01*
X180888860Y-81532610D01*
X180947730Y-81752317D01*
X180947735Y-81752331D01*
X181043863Y-81958478D01*
X181094974Y-82031472D01*
X181711449Y-81414997D01*
X181731370Y-81489343D01*
X181793905Y-81597657D01*
X181882343Y-81686095D01*
X181990657Y-81748630D01*
X182065002Y-81768550D01*
X181448526Y-82385025D01*
X181521513Y-82436132D01*
X181521521Y-82436136D01*
X181727668Y-82532264D01*
X181727682Y-82532269D01*
X181947389Y-82591139D01*
X181947400Y-82591141D01*
X182173998Y-82610966D01*
X182174002Y-82610966D01*
X182400599Y-82591141D01*
X182400610Y-82591139D01*
X182620317Y-82532269D01*
X182620331Y-82532264D01*
X182826478Y-82436136D01*
X182899471Y-82385024D01*
X182282997Y-81768550D01*
X182357343Y-81748630D01*
X182465657Y-81686095D01*
X182554095Y-81597657D01*
X182616630Y-81489343D01*
X182636550Y-81414997D01*
X183253024Y-82031471D01*
X183304134Y-81958481D01*
X183311340Y-81943028D01*
X183357511Y-81890587D01*
X183424704Y-81871433D01*
X183491585Y-81891646D01*
X183536105Y-81943022D01*
X183543430Y-81958730D01*
X183543432Y-81958734D01*
X183673954Y-82145141D01*
X183834858Y-82306045D01*
X183834861Y-82306047D01*
X184021266Y-82436568D01*
X184227504Y-82532739D01*
X184447308Y-82591635D01*
X184609230Y-82605801D01*
X184673998Y-82611468D01*
X184674000Y-82611468D01*
X184674002Y-82611468D01*
X184730673Y-82606509D01*
X184900692Y-82591635D01*
X185120496Y-82532739D01*
X185326734Y-82436568D01*
X185513139Y-82306047D01*
X185586320Y-82232865D01*
X185647641Y-82199382D01*
X185717333Y-82204366D01*
X185761679Y-82232865D01*
X185834861Y-82306047D01*
X186021266Y-82436568D01*
X186227504Y-82532739D01*
X186447308Y-82591635D01*
X186609230Y-82605801D01*
X186673998Y-82611468D01*
X186674000Y-82611468D01*
X186674002Y-82611468D01*
X186730673Y-82606509D01*
X186900692Y-82591635D01*
X187120496Y-82532739D01*
X187326734Y-82436568D01*
X187513139Y-82306047D01*
X187674047Y-82145139D01*
X187674055Y-82145127D01*
X187675010Y-82143990D01*
X187675569Y-82143617D01*
X187677876Y-82141311D01*
X187678339Y-82141774D01*
X187733173Y-82105277D01*
X187803034Y-82104154D01*
X187862411Y-82140979D01*
X187886197Y-82180344D01*
X187930202Y-82298328D01*
X187930206Y-82298335D01*
X188016452Y-82413544D01*
X188016455Y-82413547D01*
X188131664Y-82499793D01*
X188131671Y-82499797D01*
X188266517Y-82550091D01*
X188266516Y-82550091D01*
X188273444Y-82550835D01*
X188326127Y-82556500D01*
X190021872Y-82556499D01*
X190081483Y-82550091D01*
X190216331Y-82499796D01*
X190331546Y-82413546D01*
X190417796Y-82298331D01*
X190468091Y-82163483D01*
X190474500Y-82103873D01*
X190474499Y-80508128D01*
X190468091Y-80448517D01*
X190465339Y-80441139D01*
X190417797Y-80313671D01*
X190417793Y-80313664D01*
X190331547Y-80198455D01*
X190331544Y-80198452D01*
X190216335Y-80112206D01*
X190216328Y-80112202D01*
X190081482Y-80061908D01*
X190081483Y-80061908D01*
X190021883Y-80055501D01*
X190021881Y-80055500D01*
X190021873Y-80055500D01*
X190021864Y-80055500D01*
X188326129Y-80055500D01*
X188326123Y-80055501D01*
X188266516Y-80061908D01*
X188131671Y-80112202D01*
X188131664Y-80112206D01*
X188016455Y-80198452D01*
X188016452Y-80198455D01*
X187930206Y-80313664D01*
X187930203Y-80313669D01*
X187886197Y-80431656D01*
X187844325Y-80487589D01*
X187778861Y-80512006D01*
X187710588Y-80497154D01*
X187678057Y-80470507D01*
X187677876Y-80470689D01*
X187676050Y-80468863D01*
X187675017Y-80468017D01*
X187674043Y-80466856D01*
X187513141Y-80305954D01*
X187326734Y-80175432D01*
X187326732Y-80175431D01*
X187120497Y-80079261D01*
X187120488Y-80079258D01*
X186900697Y-80020366D01*
X186900693Y-80020365D01*
X186900692Y-80020365D01*
X186900691Y-80020364D01*
X186900686Y-80020364D01*
X186674002Y-80000532D01*
X186673998Y-80000532D01*
X186447313Y-80020364D01*
X186447302Y-80020366D01*
X186227511Y-80079258D01*
X186227502Y-80079261D01*
X186021267Y-80175431D01*
X186021265Y-80175432D01*
X185834858Y-80305954D01*
X185761681Y-80379132D01*
X185700358Y-80412617D01*
X185630666Y-80407633D01*
X185586319Y-80379132D01*
X185513141Y-80305954D01*
X185326734Y-80175432D01*
X185326732Y-80175431D01*
X185120497Y-80079261D01*
X185120488Y-80079258D01*
X184900697Y-80020366D01*
X184900693Y-80020365D01*
X184900692Y-80020365D01*
X184900691Y-80020364D01*
X184900686Y-80020364D01*
X184674002Y-80000532D01*
X184673998Y-80000532D01*
X184447313Y-80020364D01*
X184447302Y-80020366D01*
X184227511Y-80079258D01*
X184227502Y-80079261D01*
X184021267Y-80175431D01*
X184021265Y-80175432D01*
X183834858Y-80305954D01*
X183673954Y-80466858D01*
X183543432Y-80653265D01*
X183543429Y-80653270D01*
X183536104Y-80668979D01*
X183489929Y-80721417D01*
X183422735Y-80740566D01*
X183355855Y-80720347D01*
X183311341Y-80668973D01*
X183304133Y-80653515D01*
X183304132Y-80653513D01*
X183253025Y-80580526D01*
X182636550Y-81197001D01*
X182616630Y-81122657D01*
X182554095Y-81014343D01*
X182465657Y-80925905D01*
X182357343Y-80863370D01*
X182282998Y-80843449D01*
X182899472Y-80226974D01*
X182826478Y-80175863D01*
X182620331Y-80079735D01*
X182620317Y-80079730D01*
X182400610Y-80020860D01*
X182400599Y-80020858D01*
X182174002Y-80001034D01*
X182173998Y-80001034D01*
X181947400Y-80020858D01*
X181947389Y-80020860D01*
X181727682Y-80079730D01*
X181727673Y-80079734D01*
X181521516Y-80175866D01*
X181521512Y-80175868D01*
X181448526Y-80226973D01*
X181448526Y-80226974D01*
X182065002Y-80843449D01*
X181990657Y-80863370D01*
X181882343Y-80925905D01*
X181793905Y-81014343D01*
X181731370Y-81122657D01*
X181711449Y-81197001D01*
X181094974Y-80580526D01*
X181094973Y-80580526D01*
X181043868Y-80653512D01*
X181043866Y-80653516D01*
X180947734Y-80859673D01*
X180947730Y-80859682D01*
X180888860Y-81079389D01*
X180888858Y-81079400D01*
X180869034Y-81305997D01*
X180869034Y-81306002D01*
X172694500Y-81306002D01*
X172694499Y-80508128D01*
X172688091Y-80448517D01*
X172685339Y-80441139D01*
X172637797Y-80313671D01*
X172637793Y-80313664D01*
X172551547Y-80198455D01*
X172551544Y-80198452D01*
X172436335Y-80112206D01*
X172436328Y-80112202D01*
X172301482Y-80061908D01*
X172301483Y-80061908D01*
X172241883Y-80055501D01*
X172241881Y-80055500D01*
X172241873Y-80055500D01*
X172241864Y-80055500D01*
X170546129Y-80055500D01*
X170546123Y-80055501D01*
X170486516Y-80061908D01*
X170351671Y-80112202D01*
X170351664Y-80112206D01*
X170236455Y-80198452D01*
X170236452Y-80198455D01*
X170150206Y-80313664D01*
X170150203Y-80313669D01*
X170106197Y-80431656D01*
X170064325Y-80487589D01*
X169998861Y-80512006D01*
X169930588Y-80497154D01*
X169898057Y-80470507D01*
X169897876Y-80470689D01*
X169896050Y-80468863D01*
X169895017Y-80468017D01*
X169894043Y-80466856D01*
X169733141Y-80305954D01*
X169546734Y-80175432D01*
X169546732Y-80175431D01*
X169340497Y-80079261D01*
X169340488Y-80079258D01*
X169120697Y-80020366D01*
X169120693Y-80020365D01*
X169120692Y-80020365D01*
X169120691Y-80020364D01*
X169120686Y-80020364D01*
X168894002Y-80000532D01*
X168893998Y-80000532D01*
X168667313Y-80020364D01*
X168667302Y-80020366D01*
X168447511Y-80079258D01*
X168447502Y-80079261D01*
X168241267Y-80175431D01*
X168241265Y-80175432D01*
X168054858Y-80305954D01*
X167981681Y-80379132D01*
X167920358Y-80412617D01*
X167850666Y-80407633D01*
X167806319Y-80379132D01*
X167733141Y-80305954D01*
X167546734Y-80175432D01*
X167546732Y-80175431D01*
X167340497Y-80079261D01*
X167340488Y-80079258D01*
X167120697Y-80020366D01*
X167120693Y-80020365D01*
X167120692Y-80020365D01*
X167120691Y-80020364D01*
X167120686Y-80020364D01*
X166894002Y-80000532D01*
X166893998Y-80000532D01*
X166667313Y-80020364D01*
X166667302Y-80020366D01*
X166447511Y-80079258D01*
X166447502Y-80079261D01*
X166241267Y-80175431D01*
X166241265Y-80175432D01*
X166054858Y-80305954D01*
X165893954Y-80466858D01*
X165763432Y-80653265D01*
X165763429Y-80653270D01*
X165756104Y-80668979D01*
X165709929Y-80721417D01*
X165642735Y-80740566D01*
X165575855Y-80720347D01*
X165531341Y-80668973D01*
X165524133Y-80653515D01*
X165524132Y-80653513D01*
X165473025Y-80580526D01*
X164856550Y-81197001D01*
X164836630Y-81122657D01*
X164774095Y-81014343D01*
X164685657Y-80925905D01*
X164577343Y-80863370D01*
X164502998Y-80843449D01*
X165119472Y-80226974D01*
X165046478Y-80175863D01*
X164840331Y-80079735D01*
X164840317Y-80079730D01*
X164620610Y-80020860D01*
X164620599Y-80020858D01*
X164394002Y-80001034D01*
X164393998Y-80001034D01*
X164167400Y-80020858D01*
X164167389Y-80020860D01*
X163947682Y-80079730D01*
X163947673Y-80079734D01*
X163741516Y-80175866D01*
X163741512Y-80175868D01*
X163668526Y-80226973D01*
X163668526Y-80226974D01*
X164285002Y-80843449D01*
X164210657Y-80863370D01*
X164102343Y-80925905D01*
X164013905Y-81014343D01*
X163951370Y-81122657D01*
X163931449Y-81197001D01*
X163314974Y-80580526D01*
X163314973Y-80580526D01*
X163263868Y-80653512D01*
X163263866Y-80653516D01*
X163167734Y-80859673D01*
X163167730Y-80859682D01*
X163108860Y-81079389D01*
X163108858Y-81079400D01*
X163089034Y-81305997D01*
X163089034Y-81306002D01*
X113284000Y-81306002D01*
X113284000Y-79400401D01*
X126570974Y-79400401D01*
X126589839Y-79616035D01*
X126589841Y-79616046D01*
X126645862Y-79825122D01*
X126645864Y-79825126D01*
X126645865Y-79825130D01*
X126688889Y-79917396D01*
X126737345Y-80021310D01*
X126737346Y-80021312D01*
X126737347Y-80021313D01*
X126861506Y-80198630D01*
X127014570Y-80351694D01*
X127191887Y-80475853D01*
X127388070Y-80567335D01*
X127597159Y-80623360D01*
X127751188Y-80636835D01*
X127812798Y-80642226D01*
X127812800Y-80642226D01*
X127812802Y-80642226D01*
X127866710Y-80637509D01*
X128028441Y-80623360D01*
X128237530Y-80567335D01*
X128433713Y-80475853D01*
X128611030Y-80351694D01*
X128764094Y-80198630D01*
X128864569Y-80055136D01*
X128878453Y-80038591D01*
X129401444Y-79515601D01*
X129420489Y-79586677D01*
X129484024Y-79696723D01*
X129573877Y-79786576D01*
X129683923Y-79850111D01*
X129754997Y-79869155D01*
X129190248Y-80433903D01*
X129249537Y-80475417D01*
X129249539Y-80475418D01*
X129445640Y-80566861D01*
X129445649Y-80566865D01*
X129654640Y-80622863D01*
X129654650Y-80622865D01*
X129870199Y-80641724D01*
X129870201Y-80641724D01*
X130085749Y-80622865D01*
X130085759Y-80622863D01*
X130294750Y-80566865D01*
X130294759Y-80566861D01*
X130490861Y-80475418D01*
X130550150Y-80433903D01*
X129985403Y-79869155D01*
X130056477Y-79850111D01*
X130166523Y-79786576D01*
X130256376Y-79696723D01*
X130319911Y-79586677D01*
X130338955Y-79515602D01*
X130915646Y-80092292D01*
X130939119Y-80097009D01*
X130983004Y-80135647D01*
X131011164Y-80175863D01*
X131027106Y-80198630D01*
X131180170Y-80351694D01*
X131357487Y-80475853D01*
X131553670Y-80567335D01*
X131762759Y-80623360D01*
X131916788Y-80636835D01*
X131978398Y-80642226D01*
X131978400Y-80642226D01*
X131978402Y-80642226D01*
X132032310Y-80637509D01*
X132194041Y-80623360D01*
X132403130Y-80567335D01*
X132599313Y-80475853D01*
X132776630Y-80351694D01*
X132929694Y-80198630D01*
X133053853Y-80021313D01*
X133053854Y-80021309D01*
X133053857Y-80021306D01*
X133136018Y-79845110D01*
X133182190Y-79792670D01*
X133249383Y-79773518D01*
X133316265Y-79793734D01*
X133360782Y-79845110D01*
X133442943Y-80021306D01*
X133442945Y-80021309D01*
X133442947Y-80021313D01*
X133567106Y-80198630D01*
X133720170Y-80351694D01*
X133897487Y-80475853D01*
X134093670Y-80567335D01*
X134302759Y-80623360D01*
X134456788Y-80636835D01*
X134518398Y-80642226D01*
X134518400Y-80642226D01*
X134518402Y-80642226D01*
X134572310Y-80637509D01*
X134734041Y-80623360D01*
X134943130Y-80567335D01*
X135139313Y-80475853D01*
X135316630Y-80351694D01*
X135469694Y-80198630D01*
X135593853Y-80021313D01*
X135685335Y-79825130D01*
X135741360Y-79616041D01*
X135742588Y-79602001D01*
X144998532Y-79602001D01*
X145018364Y-79828686D01*
X145018366Y-79828697D01*
X145077258Y-80048488D01*
X145077261Y-80048497D01*
X145173431Y-80254732D01*
X145173432Y-80254734D01*
X145303954Y-80441141D01*
X145464858Y-80602045D01*
X145495299Y-80623360D01*
X145651266Y-80732568D01*
X145857504Y-80828739D01*
X146077308Y-80887635D01*
X146239230Y-80901801D01*
X146303998Y-80907468D01*
X146304000Y-80907468D01*
X146304002Y-80907468D01*
X146360673Y-80902509D01*
X146530692Y-80887635D01*
X146750496Y-80828739D01*
X146956734Y-80732568D01*
X147143139Y-80602047D01*
X147304047Y-80441139D01*
X147434568Y-80254734D01*
X147530739Y-80048496D01*
X147589635Y-79828692D01*
X147609468Y-79602000D01*
X147608127Y-79586677D01*
X147597389Y-79463935D01*
X147589635Y-79375308D01*
X147530739Y-79155504D01*
X147434568Y-78949266D01*
X147304047Y-78762861D01*
X147304045Y-78762858D01*
X147143141Y-78601954D01*
X146956734Y-78471432D01*
X146956732Y-78471431D01*
X146750497Y-78375261D01*
X146750488Y-78375258D01*
X146549916Y-78321516D01*
X146490255Y-78285151D01*
X146459726Y-78222304D01*
X146468021Y-78152929D01*
X146512506Y-78099051D01*
X146549916Y-78081966D01*
X146750317Y-78028269D01*
X146750326Y-78028265D01*
X146956483Y-77932133D01*
X146956489Y-77932129D01*
X147034865Y-77877250D01*
X147101071Y-77854922D01*
X147168838Y-77871932D01*
X147205255Y-77904512D01*
X147226258Y-77932568D01*
X147244642Y-77957126D01*
X147246455Y-77959547D01*
X147361664Y-78045793D01*
X147361671Y-78045797D01*
X147496517Y-78096091D01*
X147496516Y-78096091D01*
X147503444Y-78096835D01*
X147556127Y-78102500D01*
X149251872Y-78102499D01*
X149311483Y-78096091D01*
X149446331Y-78045796D01*
X149561546Y-77959546D01*
X149647796Y-77844331D01*
X149698091Y-77709483D01*
X149704500Y-77649873D01*
X149704499Y-77606751D01*
X149724182Y-77539715D01*
X149776985Y-77493959D01*
X149846143Y-77484014D01*
X149909700Y-77513037D01*
X149930074Y-77535629D01*
X150003953Y-77641140D01*
X150164858Y-77802045D01*
X150164861Y-77802047D01*
X150351266Y-77932568D01*
X150557504Y-78028739D01*
X150777308Y-78087635D01*
X150939230Y-78101801D01*
X151003998Y-78107468D01*
X151004000Y-78107468D01*
X151004002Y-78107468D01*
X151060807Y-78102498D01*
X151230692Y-78087635D01*
X151450496Y-78028739D01*
X151656734Y-77932568D01*
X151843139Y-77802047D01*
X151882145Y-77763041D01*
X151966319Y-77678868D01*
X152027642Y-77645383D01*
X152097334Y-77650367D01*
X152141681Y-77678868D01*
X152264858Y-77802045D01*
X152264861Y-77802047D01*
X152451266Y-77932568D01*
X152657504Y-78028739D01*
X152657509Y-78028740D01*
X152657511Y-78028741D01*
X152857117Y-78082225D01*
X152916778Y-78118590D01*
X152947307Y-78181437D01*
X152939012Y-78250812D01*
X152894527Y-78304690D01*
X152857117Y-78321775D01*
X152657511Y-78375258D01*
X152657502Y-78375261D01*
X152451267Y-78471431D01*
X152451265Y-78471432D01*
X152264858Y-78601954D01*
X152103954Y-78762858D01*
X151973432Y-78949265D01*
X151973431Y-78949267D01*
X151877261Y-79155502D01*
X151877258Y-79155511D01*
X151818366Y-79375302D01*
X151818364Y-79375313D01*
X151798532Y-79601998D01*
X151798532Y-79602001D01*
X151818364Y-79828686D01*
X151818366Y-79828697D01*
X151877258Y-80048488D01*
X151877261Y-80048497D01*
X151973431Y-80254732D01*
X151973432Y-80254734D01*
X152103954Y-80441141D01*
X152264858Y-80602045D01*
X152295299Y-80623360D01*
X152451266Y-80732568D01*
X152657504Y-80828739D01*
X152877308Y-80887635D01*
X153039230Y-80901801D01*
X153103998Y-80907468D01*
X153104000Y-80907468D01*
X153104002Y-80907468D01*
X153160673Y-80902509D01*
X153330692Y-80887635D01*
X153550496Y-80828739D01*
X153756734Y-80732568D01*
X153943139Y-80602047D01*
X154104047Y-80441139D01*
X154234568Y-80254734D01*
X154330739Y-80048496D01*
X154389635Y-79828692D01*
X154409468Y-79602000D01*
X154408127Y-79586677D01*
X154397389Y-79463935D01*
X154389635Y-79375308D01*
X154330739Y-79155504D01*
X154234568Y-78949266D01*
X154104047Y-78762861D01*
X154104045Y-78762858D01*
X153943141Y-78601954D01*
X153934639Y-78596001D01*
X159318891Y-78596001D01*
X159339300Y-78881362D01*
X159400109Y-79160895D01*
X159500091Y-79428958D01*
X159637191Y-79680038D01*
X159637196Y-79680046D01*
X159743882Y-79822561D01*
X159743883Y-79822562D01*
X160351912Y-79214532D01*
X160446829Y-79345175D01*
X160574825Y-79473171D01*
X160705465Y-79568086D01*
X160097436Y-80176115D01*
X160239960Y-80282807D01*
X160239961Y-80282808D01*
X160491042Y-80419908D01*
X160491041Y-80419908D01*
X160759104Y-80519890D01*
X161038637Y-80580699D01*
X161323999Y-80601109D01*
X161324001Y-80601109D01*
X161609362Y-80580699D01*
X161888895Y-80519890D01*
X162156958Y-80419908D01*
X162408047Y-80282803D01*
X162550561Y-80176116D01*
X162550562Y-80176115D01*
X161942534Y-79568086D01*
X162073175Y-79473171D01*
X162201171Y-79345175D01*
X162296086Y-79214533D01*
X162904115Y-79822562D01*
X162904116Y-79822561D01*
X163010803Y-79680047D01*
X163147908Y-79428958D01*
X163247890Y-79160895D01*
X163308699Y-78881362D01*
X163329109Y-78596001D01*
X172458891Y-78596001D01*
X172479300Y-78881362D01*
X172540109Y-79160895D01*
X172640091Y-79428958D01*
X172777191Y-79680038D01*
X172777196Y-79680046D01*
X172883882Y-79822561D01*
X172883883Y-79822562D01*
X173491912Y-79214532D01*
X173586829Y-79345175D01*
X173714825Y-79473171D01*
X173845465Y-79568086D01*
X173237436Y-80176115D01*
X173379960Y-80282807D01*
X173379961Y-80282808D01*
X173631042Y-80419908D01*
X173631041Y-80419908D01*
X173899104Y-80519890D01*
X174178637Y-80580699D01*
X174463999Y-80601109D01*
X174464001Y-80601109D01*
X174749362Y-80580699D01*
X175028895Y-80519890D01*
X175296958Y-80419908D01*
X175548047Y-80282803D01*
X175690561Y-80176116D01*
X175690562Y-80176115D01*
X175082534Y-79568086D01*
X175213175Y-79473171D01*
X175341171Y-79345175D01*
X175436086Y-79214533D01*
X176044115Y-79822562D01*
X176044116Y-79822561D01*
X176150803Y-79680047D01*
X176287908Y-79428958D01*
X176387890Y-79160895D01*
X176448699Y-78881362D01*
X176469109Y-78596001D01*
X177098891Y-78596001D01*
X177119300Y-78881362D01*
X177180109Y-79160895D01*
X177280091Y-79428958D01*
X177417191Y-79680038D01*
X177417196Y-79680046D01*
X177523882Y-79822561D01*
X177523883Y-79822562D01*
X178131912Y-79214532D01*
X178226829Y-79345175D01*
X178354825Y-79473171D01*
X178485465Y-79568086D01*
X177877436Y-80176115D01*
X178019960Y-80282807D01*
X178019961Y-80282808D01*
X178271042Y-80419908D01*
X178271041Y-80419908D01*
X178539104Y-80519890D01*
X178818637Y-80580699D01*
X179103999Y-80601109D01*
X179104001Y-80601109D01*
X179389362Y-80580699D01*
X179668895Y-80519890D01*
X179936958Y-80419908D01*
X180188047Y-80282803D01*
X180330561Y-80176116D01*
X180330562Y-80176115D01*
X179722534Y-79568086D01*
X179853175Y-79473171D01*
X179981171Y-79345175D01*
X180076086Y-79214533D01*
X180684115Y-79822562D01*
X180684116Y-79822561D01*
X180790803Y-79680047D01*
X180927908Y-79428958D01*
X181027890Y-79160895D01*
X181088699Y-78881362D01*
X181109109Y-78596001D01*
X190238891Y-78596001D01*
X190259300Y-78881362D01*
X190320109Y-79160895D01*
X190420091Y-79428958D01*
X190557191Y-79680038D01*
X190557196Y-79680046D01*
X190663882Y-79822561D01*
X190663883Y-79822562D01*
X191271912Y-79214532D01*
X191366829Y-79345175D01*
X191494825Y-79473171D01*
X191625465Y-79568086D01*
X191017436Y-80176115D01*
X191159960Y-80282807D01*
X191159961Y-80282808D01*
X191411042Y-80419908D01*
X191411041Y-80419908D01*
X191679104Y-80519890D01*
X191958637Y-80580699D01*
X192243999Y-80601109D01*
X192244001Y-80601109D01*
X192529362Y-80580699D01*
X192808895Y-80519890D01*
X193076958Y-80419908D01*
X193328047Y-80282803D01*
X193470561Y-80176116D01*
X193470562Y-80176115D01*
X192862534Y-79568086D01*
X192993175Y-79473171D01*
X193121171Y-79345175D01*
X193216086Y-79214533D01*
X193824115Y-79822562D01*
X193824116Y-79822561D01*
X193930803Y-79680047D01*
X194067908Y-79428958D01*
X194167890Y-79160895D01*
X194228699Y-78881362D01*
X194249109Y-78596001D01*
X194249109Y-78595998D01*
X194228699Y-78310637D01*
X194167890Y-78031104D01*
X194067908Y-77763041D01*
X193930808Y-77511961D01*
X193930807Y-77511960D01*
X193824115Y-77369436D01*
X193216086Y-77977465D01*
X193121171Y-77846825D01*
X192993175Y-77718829D01*
X192862533Y-77623912D01*
X193470562Y-77015883D01*
X193470561Y-77015882D01*
X193328046Y-76909196D01*
X193328038Y-76909191D01*
X193076957Y-76772091D01*
X193076958Y-76772091D01*
X192808895Y-76672109D01*
X192529362Y-76611300D01*
X192244001Y-76590891D01*
X192243999Y-76590891D01*
X191958637Y-76611300D01*
X191679104Y-76672109D01*
X191411041Y-76772091D01*
X191159961Y-76909191D01*
X191159953Y-76909196D01*
X191017437Y-77015882D01*
X191017436Y-77015883D01*
X191625466Y-77623913D01*
X191494825Y-77718829D01*
X191366829Y-77846825D01*
X191271913Y-77977466D01*
X190663883Y-77369436D01*
X190663882Y-77369437D01*
X190557196Y-77511953D01*
X190557191Y-77511961D01*
X190420091Y-77763041D01*
X190320109Y-78031104D01*
X190259300Y-78310637D01*
X190238891Y-78595998D01*
X190238891Y-78596001D01*
X181109109Y-78596001D01*
X181109109Y-78595998D01*
X181088699Y-78310637D01*
X181027890Y-78031104D01*
X180927908Y-77763041D01*
X180790808Y-77511961D01*
X180790807Y-77511960D01*
X180684115Y-77369436D01*
X180076086Y-77977465D01*
X179981171Y-77846825D01*
X179853175Y-77718829D01*
X179722533Y-77623912D01*
X180330562Y-77015883D01*
X180330561Y-77015882D01*
X180188046Y-76909196D01*
X180188038Y-76909191D01*
X179936957Y-76772091D01*
X179936958Y-76772091D01*
X179668895Y-76672109D01*
X179389362Y-76611300D01*
X179104001Y-76590891D01*
X179103999Y-76590891D01*
X178818637Y-76611300D01*
X178539104Y-76672109D01*
X178271041Y-76772091D01*
X178019961Y-76909191D01*
X178019953Y-76909196D01*
X177877437Y-77015882D01*
X177877436Y-77015883D01*
X178485466Y-77623913D01*
X178354825Y-77718829D01*
X178226829Y-77846825D01*
X178131913Y-77977466D01*
X177523883Y-77369436D01*
X177523882Y-77369437D01*
X177417196Y-77511953D01*
X177417191Y-77511961D01*
X177280091Y-77763041D01*
X177180109Y-78031104D01*
X177119300Y-78310637D01*
X177098891Y-78595998D01*
X177098891Y-78596001D01*
X176469109Y-78596001D01*
X176469109Y-78595998D01*
X176448699Y-78310637D01*
X176387890Y-78031104D01*
X176287908Y-77763041D01*
X176150808Y-77511961D01*
X176150807Y-77511960D01*
X176044115Y-77369436D01*
X175436086Y-77977465D01*
X175341171Y-77846825D01*
X175213175Y-77718829D01*
X175082533Y-77623912D01*
X175690562Y-77015883D01*
X175690561Y-77015882D01*
X175548046Y-76909196D01*
X175548038Y-76909191D01*
X175296957Y-76772091D01*
X175296958Y-76772091D01*
X175028895Y-76672109D01*
X174749362Y-76611300D01*
X174464001Y-76590891D01*
X174463999Y-76590891D01*
X174178637Y-76611300D01*
X173899104Y-76672109D01*
X173631041Y-76772091D01*
X173379961Y-76909191D01*
X173379953Y-76909196D01*
X173237437Y-77015882D01*
X173237436Y-77015883D01*
X173845466Y-77623913D01*
X173714825Y-77718829D01*
X173586829Y-77846825D01*
X173491913Y-77977466D01*
X172883883Y-77369436D01*
X172883882Y-77369437D01*
X172777196Y-77511953D01*
X172777191Y-77511961D01*
X172640091Y-77763041D01*
X172540109Y-78031104D01*
X172479300Y-78310637D01*
X172458891Y-78595998D01*
X172458891Y-78596001D01*
X163329109Y-78596001D01*
X163329109Y-78595998D01*
X163308699Y-78310637D01*
X163247890Y-78031104D01*
X163147908Y-77763041D01*
X163010808Y-77511961D01*
X163010807Y-77511960D01*
X162904115Y-77369436D01*
X162296086Y-77977465D01*
X162201171Y-77846825D01*
X162073175Y-77718829D01*
X161942533Y-77623912D01*
X162550562Y-77015883D01*
X162550561Y-77015882D01*
X162408046Y-76909196D01*
X162408038Y-76909191D01*
X162156957Y-76772091D01*
X162156958Y-76772091D01*
X161888895Y-76672109D01*
X161609362Y-76611300D01*
X161324001Y-76590891D01*
X161323999Y-76590891D01*
X161038637Y-76611300D01*
X160759104Y-76672109D01*
X160491041Y-76772091D01*
X160239961Y-76909191D01*
X160239953Y-76909196D01*
X160097437Y-77015882D01*
X160097436Y-77015883D01*
X160705466Y-77623913D01*
X160574825Y-77718829D01*
X160446829Y-77846825D01*
X160351913Y-77977466D01*
X159743883Y-77369436D01*
X159743882Y-77369437D01*
X159637196Y-77511953D01*
X159637191Y-77511961D01*
X159500091Y-77763041D01*
X159400109Y-78031104D01*
X159339300Y-78310637D01*
X159318891Y-78595998D01*
X159318891Y-78596001D01*
X153934639Y-78596001D01*
X153756734Y-78471432D01*
X153756732Y-78471431D01*
X153550497Y-78375261D01*
X153550488Y-78375258D01*
X153369293Y-78326708D01*
X153350881Y-78321774D01*
X153291221Y-78285410D01*
X153260692Y-78222563D01*
X153268987Y-78153188D01*
X153313472Y-78099310D01*
X153350882Y-78082225D01*
X153366139Y-78078137D01*
X153550496Y-78028739D01*
X153756734Y-77932568D01*
X153943139Y-77802047D01*
X154104047Y-77641139D01*
X154234568Y-77454734D01*
X154330739Y-77248496D01*
X154389635Y-77028692D01*
X154409468Y-76802000D01*
X154408666Y-76792838D01*
X154400156Y-76695564D01*
X154389635Y-76575308D01*
X154330739Y-76355504D01*
X154234568Y-76149266D01*
X154104047Y-75962861D01*
X154104045Y-75962858D01*
X153943141Y-75801954D01*
X153756734Y-75671432D01*
X153756732Y-75671431D01*
X153550497Y-75575261D01*
X153550488Y-75575258D01*
X153330697Y-75516366D01*
X153330693Y-75516365D01*
X153330692Y-75516365D01*
X153330691Y-75516364D01*
X153330686Y-75516364D01*
X153104002Y-75496532D01*
X153103998Y-75496532D01*
X152877313Y-75516364D01*
X152877302Y-75516366D01*
X152657511Y-75575258D01*
X152657502Y-75575261D01*
X152451267Y-75671431D01*
X152451265Y-75671432D01*
X152264858Y-75801954D01*
X152141681Y-75925132D01*
X152080358Y-75958617D01*
X152010666Y-75953633D01*
X151966319Y-75925132D01*
X151843141Y-75801954D01*
X151656734Y-75671432D01*
X151656732Y-75671431D01*
X151450497Y-75575261D01*
X151450488Y-75575258D01*
X151230697Y-75516366D01*
X151230693Y-75516365D01*
X151230692Y-75516365D01*
X151230691Y-75516364D01*
X151230686Y-75516364D01*
X151004002Y-75496532D01*
X151003998Y-75496532D01*
X150777313Y-75516364D01*
X150777302Y-75516366D01*
X150557511Y-75575258D01*
X150557502Y-75575261D01*
X150351267Y-75671431D01*
X150351265Y-75671432D01*
X150164858Y-75801954D01*
X150003954Y-75962858D01*
X149930074Y-76068372D01*
X149875498Y-76111997D01*
X149805999Y-76119191D01*
X149743644Y-76087669D01*
X149708230Y-76027439D01*
X149704499Y-75997249D01*
X149704499Y-75954129D01*
X149704498Y-75954123D01*
X149704445Y-75953633D01*
X149698091Y-75894517D01*
X149680188Y-75846517D01*
X149647797Y-75759671D01*
X149647793Y-75759664D01*
X149561547Y-75644455D01*
X149561544Y-75644452D01*
X149446335Y-75558206D01*
X149446328Y-75558202D01*
X149311482Y-75507908D01*
X149311483Y-75507908D01*
X149251883Y-75501501D01*
X149251881Y-75501500D01*
X149251873Y-75501500D01*
X149251864Y-75501500D01*
X147556129Y-75501500D01*
X147556123Y-75501501D01*
X147496516Y-75507908D01*
X147361671Y-75558202D01*
X147361664Y-75558206D01*
X147246455Y-75644452D01*
X147205255Y-75699488D01*
X147149321Y-75741358D01*
X147079629Y-75746342D01*
X147034865Y-75726750D01*
X146956489Y-75671870D01*
X146956483Y-75671866D01*
X146750326Y-75575734D01*
X146750317Y-75575730D01*
X146530610Y-75516860D01*
X146530599Y-75516858D01*
X146304002Y-75497034D01*
X146303998Y-75497034D01*
X146077400Y-75516858D01*
X146077389Y-75516860D01*
X145857682Y-75575730D01*
X145857673Y-75575734D01*
X145651516Y-75671866D01*
X145651512Y-75671868D01*
X145578526Y-75722973D01*
X145578526Y-75722974D01*
X146257553Y-76402000D01*
X146251339Y-76402000D01*
X146149606Y-76429259D01*
X146058394Y-76481920D01*
X145983920Y-76556394D01*
X145931259Y-76647606D01*
X145904000Y-76749339D01*
X145904000Y-76755552D01*
X145224974Y-76076526D01*
X145224973Y-76076526D01*
X145173868Y-76149512D01*
X145173866Y-76149516D01*
X145077734Y-76355673D01*
X145077730Y-76355682D01*
X145018860Y-76575389D01*
X145018858Y-76575400D01*
X144999034Y-76801997D01*
X144999034Y-76802002D01*
X145018858Y-77028599D01*
X145018860Y-77028610D01*
X145077730Y-77248317D01*
X145077735Y-77248331D01*
X145173863Y-77454478D01*
X145224974Y-77527472D01*
X145904000Y-76848446D01*
X145904000Y-76854661D01*
X145931259Y-76956394D01*
X145983920Y-77047606D01*
X146058394Y-77122080D01*
X146149606Y-77174741D01*
X146251339Y-77202000D01*
X146257551Y-77202000D01*
X145578526Y-77881025D01*
X145651513Y-77932132D01*
X145651521Y-77932136D01*
X145857668Y-78028264D01*
X145857682Y-78028269D01*
X146058083Y-78081966D01*
X146117744Y-78118331D01*
X146148273Y-78181178D01*
X146139978Y-78250553D01*
X146095493Y-78304431D01*
X146058083Y-78321516D01*
X145857511Y-78375258D01*
X145857502Y-78375261D01*
X145651267Y-78471431D01*
X145651265Y-78471432D01*
X145464858Y-78601954D01*
X145303954Y-78762858D01*
X145173432Y-78949265D01*
X145173431Y-78949267D01*
X145077261Y-79155502D01*
X145077258Y-79155511D01*
X145018366Y-79375302D01*
X145018364Y-79375313D01*
X144998532Y-79601998D01*
X144998532Y-79602001D01*
X135742588Y-79602001D01*
X135760226Y-79400400D01*
X135741360Y-79184759D01*
X135698821Y-79026001D01*
X135685337Y-78975677D01*
X135685336Y-78975676D01*
X135685335Y-78975670D01*
X135593853Y-78779487D01*
X135469694Y-78602170D01*
X135316630Y-78449106D01*
X135139313Y-78324947D01*
X135139312Y-78324946D01*
X135139310Y-78324945D01*
X135018172Y-78268458D01*
X135017579Y-78268181D01*
X134965141Y-78222010D01*
X134945989Y-78154816D01*
X134966205Y-78087935D01*
X135017579Y-78043418D01*
X135139313Y-77986653D01*
X135316630Y-77862494D01*
X135469694Y-77709430D01*
X135593853Y-77532113D01*
X135685335Y-77335930D01*
X135741360Y-77126841D01*
X135760226Y-76911200D01*
X135756921Y-76873429D01*
X135748366Y-76775641D01*
X135741360Y-76695559D01*
X135685335Y-76486470D01*
X135593853Y-76290287D01*
X135469694Y-76112970D01*
X135316630Y-75959906D01*
X135139313Y-75835747D01*
X135139312Y-75835746D01*
X135139310Y-75835745D01*
X135011055Y-75775939D01*
X134943130Y-75744265D01*
X134943126Y-75744264D01*
X134943122Y-75744262D01*
X134734046Y-75688241D01*
X134734042Y-75688240D01*
X134734041Y-75688240D01*
X134734040Y-75688239D01*
X134734035Y-75688239D01*
X134518402Y-75669374D01*
X134518398Y-75669374D01*
X134302764Y-75688239D01*
X134302753Y-75688241D01*
X134093677Y-75744262D01*
X134093668Y-75744266D01*
X133897489Y-75835745D01*
X133870642Y-75854544D01*
X133720170Y-75959906D01*
X133720168Y-75959907D01*
X133720165Y-75959910D01*
X133577381Y-76102695D01*
X133516058Y-76136180D01*
X133446366Y-76131196D01*
X133402019Y-76102695D01*
X133259234Y-75959910D01*
X133259230Y-75959906D01*
X133081913Y-75835747D01*
X133081912Y-75835746D01*
X133081910Y-75835745D01*
X132953655Y-75775939D01*
X132885730Y-75744265D01*
X132885726Y-75744264D01*
X132885722Y-75744262D01*
X132676646Y-75688241D01*
X132676642Y-75688240D01*
X132676641Y-75688240D01*
X132676640Y-75688239D01*
X132676635Y-75688239D01*
X132461002Y-75669374D01*
X132460998Y-75669374D01*
X132245364Y-75688239D01*
X132245353Y-75688241D01*
X132036277Y-75744262D01*
X132036268Y-75744266D01*
X131840089Y-75835745D01*
X131813242Y-75854544D01*
X131662770Y-75959906D01*
X131662768Y-75959907D01*
X131662765Y-75959910D01*
X131509710Y-76112965D01*
X131385545Y-76290289D01*
X131294066Y-76486468D01*
X131294063Y-76486474D01*
X131285375Y-76518901D01*
X131249010Y-76578561D01*
X131186163Y-76609090D01*
X131116787Y-76600795D01*
X131062909Y-76556310D01*
X131045825Y-76518901D01*
X131037136Y-76486474D01*
X131037135Y-76486470D01*
X130945653Y-76290287D01*
X130821494Y-76112970D01*
X130668430Y-75959906D01*
X130491113Y-75835747D01*
X130491112Y-75835746D01*
X130491110Y-75835745D01*
X130362855Y-75775939D01*
X130294930Y-75744265D01*
X130294926Y-75744264D01*
X130294922Y-75744262D01*
X130085846Y-75688241D01*
X130085842Y-75688240D01*
X130085841Y-75688240D01*
X130085840Y-75688239D01*
X130085835Y-75688239D01*
X129870202Y-75669374D01*
X129870198Y-75669374D01*
X129654564Y-75688239D01*
X129654553Y-75688241D01*
X129445477Y-75744262D01*
X129445468Y-75744266D01*
X129249289Y-75835745D01*
X129222442Y-75854544D01*
X129071970Y-75959906D01*
X129071968Y-75959907D01*
X129071965Y-75959910D01*
X128929181Y-76102695D01*
X128867858Y-76136180D01*
X128798166Y-76131196D01*
X128753819Y-76102695D01*
X128611034Y-75959910D01*
X128611030Y-75959906D01*
X128433713Y-75835747D01*
X128433712Y-75835746D01*
X128433710Y-75835745D01*
X128305455Y-75775939D01*
X128237530Y-75744265D01*
X128237526Y-75744264D01*
X128237522Y-75744262D01*
X128028446Y-75688241D01*
X128028442Y-75688240D01*
X128028441Y-75688240D01*
X128028440Y-75688239D01*
X128028435Y-75688239D01*
X127812802Y-75669374D01*
X127812798Y-75669374D01*
X127597164Y-75688239D01*
X127597153Y-75688241D01*
X127388077Y-75744262D01*
X127388068Y-75744266D01*
X127191889Y-75835745D01*
X127165042Y-75854544D01*
X127014570Y-75959906D01*
X127014568Y-75959907D01*
X127014565Y-75959910D01*
X126861510Y-76112965D01*
X126737345Y-76290289D01*
X126645866Y-76486468D01*
X126645862Y-76486477D01*
X126589841Y-76695553D01*
X126589839Y-76695564D01*
X126570974Y-76911198D01*
X126570974Y-76911201D01*
X126589839Y-77126835D01*
X126589841Y-77126846D01*
X126645862Y-77335922D01*
X126645864Y-77335926D01*
X126645865Y-77335930D01*
X126661490Y-77369437D01*
X126737345Y-77532110D01*
X126737346Y-77532112D01*
X126737347Y-77532113D01*
X126861506Y-77709430D01*
X127014570Y-77862494D01*
X127191887Y-77986653D01*
X127191888Y-77986653D01*
X127191889Y-77986654D01*
X127313619Y-78043418D01*
X127366058Y-78089590D01*
X127385210Y-78156784D01*
X127364994Y-78223665D01*
X127313619Y-78268182D01*
X127191889Y-78324945D01*
X127120031Y-78375261D01*
X127014570Y-78449106D01*
X127014568Y-78449107D01*
X127014565Y-78449110D01*
X126861510Y-78602165D01*
X126737345Y-78779489D01*
X126645866Y-78975668D01*
X126645862Y-78975677D01*
X126589841Y-79184753D01*
X126589839Y-79184764D01*
X126570974Y-79400398D01*
X126570974Y-79400401D01*
X113284000Y-79400401D01*
X113284000Y-73914003D01*
X114342916Y-73914003D01*
X114363235Y-74262869D01*
X114363236Y-74262880D01*
X114423914Y-74607002D01*
X114423916Y-74607011D01*
X114524145Y-74941800D01*
X114662555Y-75262670D01*
X114662561Y-75262683D01*
X114837289Y-75565322D01*
X115045967Y-75845625D01*
X115054148Y-75854296D01*
X116304320Y-74604125D01*
X116394554Y-74728320D01*
X116533680Y-74867446D01*
X116657873Y-74957678D01*
X115410818Y-76204733D01*
X115410819Y-76204734D01*
X115553484Y-76324445D01*
X115845461Y-76516480D01*
X116157739Y-76673314D01*
X116157745Y-76673316D01*
X116486130Y-76792838D01*
X116486133Y-76792839D01*
X116826171Y-76873429D01*
X117173276Y-76913999D01*
X117173277Y-76914000D01*
X117522723Y-76914000D01*
X117522723Y-76913999D01*
X117869827Y-76873429D01*
X117869829Y-76873429D01*
X118209866Y-76792839D01*
X118209869Y-76792838D01*
X118538254Y-76673316D01*
X118538260Y-76673314D01*
X118850538Y-76516480D01*
X119142509Y-76324449D01*
X119142510Y-76324448D01*
X119285179Y-76204734D01*
X119285180Y-76204733D01*
X118038126Y-74957678D01*
X118162320Y-74867446D01*
X118301446Y-74728320D01*
X118391678Y-74604126D01*
X119641849Y-75854297D01*
X119641851Y-75854296D01*
X119650022Y-75845636D01*
X119650033Y-75845623D01*
X119858710Y-75565322D01*
X120033438Y-75262683D01*
X120033444Y-75262670D01*
X120171854Y-74941800D01*
X120272083Y-74607011D01*
X120272085Y-74607002D01*
X120332763Y-74262880D01*
X120332764Y-74262869D01*
X120353084Y-73914003D01*
X120353084Y-73914001D01*
X122468656Y-73914001D01*
X122488408Y-74190169D01*
X122488409Y-74190176D01*
X122547260Y-74460707D01*
X122547262Y-74460714D01*
X122577791Y-74542566D01*
X122644019Y-74720132D01*
X122644021Y-74720136D01*
X122776707Y-74963131D01*
X122776712Y-74963139D01*
X122942628Y-75184778D01*
X122942644Y-75184796D01*
X123138403Y-75380555D01*
X123138421Y-75380571D01*
X123360060Y-75546487D01*
X123360068Y-75546492D01*
X123603063Y-75679178D01*
X123603067Y-75679180D01*
X123603069Y-75679181D01*
X123862486Y-75775938D01*
X124133032Y-75834792D01*
X124387925Y-75853022D01*
X124409199Y-75854544D01*
X124409200Y-75854544D01*
X124409201Y-75854544D01*
X124428953Y-75853131D01*
X124685368Y-75834792D01*
X124955914Y-75775938D01*
X125215331Y-75679181D01*
X125458337Y-75546489D01*
X125679986Y-75380565D01*
X125875765Y-75184786D01*
X126041689Y-74963137D01*
X126174381Y-74720131D01*
X126271138Y-74460714D01*
X126329992Y-74190168D01*
X126349744Y-73914000D01*
X126329992Y-73637832D01*
X126271138Y-73367286D01*
X126174381Y-73107869D01*
X126170740Y-73101201D01*
X129225056Y-73101201D01*
X129244808Y-73377369D01*
X129244809Y-73377376D01*
X129303660Y-73647907D01*
X129303662Y-73647914D01*
X129333531Y-73727996D01*
X129400419Y-73907332D01*
X129400421Y-73907336D01*
X129533107Y-74150331D01*
X129533112Y-74150339D01*
X129699028Y-74371978D01*
X129699044Y-74371996D01*
X129894803Y-74567755D01*
X129894821Y-74567771D01*
X130116460Y-74733687D01*
X130116468Y-74733692D01*
X130359463Y-74866378D01*
X130359467Y-74866380D01*
X130359469Y-74866381D01*
X130618886Y-74963138D01*
X130889432Y-75021992D01*
X131144325Y-75040222D01*
X131165599Y-75041744D01*
X131165600Y-75041744D01*
X131165601Y-75041744D01*
X131185353Y-75040331D01*
X131441768Y-75021992D01*
X131712314Y-74963138D01*
X131971731Y-74866381D01*
X132214737Y-74733689D01*
X132436386Y-74567765D01*
X132632165Y-74371986D01*
X132798089Y-74150337D01*
X132927139Y-73914001D01*
X135981456Y-73914001D01*
X136001208Y-74190169D01*
X136001209Y-74190176D01*
X136060060Y-74460707D01*
X136060062Y-74460714D01*
X136090591Y-74542566D01*
X136156819Y-74720132D01*
X136156821Y-74720136D01*
X136289507Y-74963131D01*
X136289512Y-74963139D01*
X136455428Y-75184778D01*
X136455444Y-75184796D01*
X136651203Y-75380555D01*
X136651221Y-75380571D01*
X136872860Y-75546487D01*
X136872868Y-75546492D01*
X137115863Y-75679178D01*
X137115867Y-75679180D01*
X137115869Y-75679181D01*
X137375286Y-75775938D01*
X137645832Y-75834792D01*
X137900725Y-75853022D01*
X137921999Y-75854544D01*
X137922000Y-75854544D01*
X137922001Y-75854544D01*
X137941753Y-75853131D01*
X138198168Y-75834792D01*
X138468714Y-75775938D01*
X138728131Y-75679181D01*
X138971137Y-75546489D01*
X139192786Y-75380565D01*
X139388565Y-75184786D01*
X139554489Y-74963137D01*
X139632595Y-74820097D01*
X141353500Y-74820097D01*
X141390446Y-75053368D01*
X141463433Y-75277996D01*
X141570657Y-75488433D01*
X141709483Y-75679510D01*
X141876490Y-75846517D01*
X142067567Y-75985343D01*
X142150185Y-76027439D01*
X142278003Y-76092566D01*
X142278005Y-76092566D01*
X142278008Y-76092568D01*
X142340799Y-76112970D01*
X142502631Y-76165553D01*
X142735903Y-76202500D01*
X142735908Y-76202500D01*
X142972097Y-76202500D01*
X143205368Y-76165553D01*
X143429992Y-76092568D01*
X143640433Y-75985343D01*
X143831510Y-75846517D01*
X143998517Y-75679510D01*
X144137343Y-75488433D01*
X144244568Y-75277992D01*
X144317553Y-75053368D01*
X144319394Y-75041744D01*
X144354500Y-74820097D01*
X155053500Y-74820097D01*
X155090446Y-75053368D01*
X155163433Y-75277996D01*
X155270657Y-75488433D01*
X155409483Y-75679510D01*
X155576490Y-75846517D01*
X155767567Y-75985343D01*
X155850185Y-76027439D01*
X155978003Y-76092566D01*
X155978005Y-76092566D01*
X155978008Y-76092568D01*
X156040799Y-76112970D01*
X156202631Y-76165553D01*
X156435903Y-76202500D01*
X156435908Y-76202500D01*
X156672097Y-76202500D01*
X156905368Y-76165553D01*
X157129992Y-76092568D01*
X157340433Y-75985343D01*
X157531510Y-75846517D01*
X157698517Y-75679510D01*
X157837343Y-75488433D01*
X157944568Y-75277992D01*
X158017553Y-75053368D01*
X158019394Y-75041744D01*
X158054500Y-74820097D01*
X158054500Y-73914003D01*
X195622916Y-73914003D01*
X195643235Y-74262869D01*
X195643236Y-74262880D01*
X195703914Y-74607002D01*
X195703916Y-74607011D01*
X195804145Y-74941800D01*
X195942555Y-75262670D01*
X195942561Y-75262683D01*
X196117289Y-75565322D01*
X196325967Y-75845625D01*
X196334148Y-75854296D01*
X197584320Y-74604125D01*
X197674554Y-74728320D01*
X197813680Y-74867446D01*
X197937873Y-74957678D01*
X196690818Y-76204733D01*
X196690819Y-76204734D01*
X196833484Y-76324445D01*
X197125461Y-76516480D01*
X197437739Y-76673314D01*
X197437745Y-76673316D01*
X197766130Y-76792838D01*
X197766133Y-76792839D01*
X198106171Y-76873429D01*
X198453276Y-76913999D01*
X198453277Y-76914000D01*
X198802723Y-76914000D01*
X198802723Y-76913999D01*
X199149827Y-76873429D01*
X199149829Y-76873429D01*
X199489866Y-76792839D01*
X199489869Y-76792838D01*
X199818254Y-76673316D01*
X199818260Y-76673314D01*
X200130538Y-76516480D01*
X200422509Y-76324449D01*
X200422510Y-76324448D01*
X200565179Y-76204734D01*
X200565180Y-76204733D01*
X199318126Y-74957678D01*
X199442320Y-74867446D01*
X199581446Y-74728320D01*
X199671678Y-74604126D01*
X200921849Y-75854297D01*
X200921851Y-75854296D01*
X200930022Y-75845636D01*
X200930033Y-75845623D01*
X201138710Y-75565322D01*
X201313438Y-75262683D01*
X201313444Y-75262670D01*
X201451854Y-74941800D01*
X201552083Y-74607011D01*
X201552085Y-74607002D01*
X201612763Y-74262880D01*
X201612764Y-74262869D01*
X201633084Y-73914003D01*
X201633084Y-73913996D01*
X201612764Y-73565130D01*
X201612763Y-73565119D01*
X201552085Y-73220997D01*
X201552083Y-73220988D01*
X201451854Y-72886199D01*
X201313444Y-72565329D01*
X201313438Y-72565316D01*
X201138710Y-72262677D01*
X200930032Y-71982374D01*
X200921850Y-71973702D01*
X199671678Y-73223873D01*
X199581446Y-73099680D01*
X199442320Y-72960554D01*
X199318125Y-72870320D01*
X200565180Y-71623265D01*
X200565179Y-71623264D01*
X200422519Y-71503557D01*
X200130538Y-71311519D01*
X199818260Y-71154685D01*
X199818254Y-71154683D01*
X199489869Y-71035161D01*
X199489866Y-71035160D01*
X199149828Y-70954570D01*
X198802723Y-70914000D01*
X198453277Y-70914000D01*
X198106172Y-70954570D01*
X198106170Y-70954570D01*
X197766133Y-71035160D01*
X197766130Y-71035161D01*
X197437745Y-71154683D01*
X197437739Y-71154685D01*
X197125461Y-71311519D01*
X196833480Y-71503557D01*
X196690819Y-71623264D01*
X196690818Y-71623265D01*
X197937874Y-72870320D01*
X197813680Y-72960554D01*
X197674554Y-73099680D01*
X197584320Y-73223873D01*
X196334148Y-71973701D01*
X196334147Y-71973702D01*
X196325976Y-71982363D01*
X196325972Y-71982368D01*
X196117289Y-72262677D01*
X195942561Y-72565316D01*
X195942555Y-72565329D01*
X195804145Y-72886199D01*
X195703916Y-73220988D01*
X195703914Y-73220997D01*
X195643236Y-73565119D01*
X195643235Y-73565130D01*
X195622916Y-73913996D01*
X195622916Y-73914003D01*
X158054500Y-73914003D01*
X158054500Y-73083902D01*
X158017553Y-72850631D01*
X157950161Y-72643221D01*
X157944568Y-72626008D01*
X157944566Y-72626005D01*
X157944566Y-72626003D01*
X157853585Y-72447444D01*
X157837343Y-72415567D01*
X157698517Y-72224490D01*
X157531510Y-72057483D01*
X157340433Y-71918657D01*
X157129996Y-71811433D01*
X156905368Y-71738446D01*
X156672097Y-71701500D01*
X156672092Y-71701500D01*
X156435908Y-71701500D01*
X156435903Y-71701500D01*
X156202631Y-71738446D01*
X155978003Y-71811433D01*
X155767566Y-71918657D01*
X155679868Y-71982374D01*
X155576490Y-72057483D01*
X155576488Y-72057485D01*
X155576487Y-72057485D01*
X155409485Y-72224487D01*
X155409485Y-72224488D01*
X155409483Y-72224490D01*
X155368058Y-72281507D01*
X155270657Y-72415566D01*
X155163433Y-72626003D01*
X155090446Y-72850631D01*
X155053500Y-73083902D01*
X155053500Y-74820097D01*
X144354500Y-74820097D01*
X144354500Y-73270097D01*
X147203500Y-73270097D01*
X147240446Y-73503368D01*
X147313433Y-73727996D01*
X147358082Y-73815623D01*
X147420657Y-73938433D01*
X147559483Y-74129510D01*
X147726490Y-74296517D01*
X147917567Y-74435343D01*
X148016991Y-74486002D01*
X148128003Y-74542566D01*
X148128005Y-74542566D01*
X148128008Y-74542568D01*
X148248412Y-74581689D01*
X148352631Y-74615553D01*
X148585903Y-74652500D01*
X148585908Y-74652500D01*
X150822097Y-74652500D01*
X151055368Y-74615553D01*
X151081685Y-74607002D01*
X151279992Y-74542568D01*
X151490433Y-74435343D01*
X151681510Y-74296517D01*
X151848517Y-74129510D01*
X151987343Y-73938433D01*
X152094568Y-73727992D01*
X152167553Y-73503368D01*
X152204500Y-73270097D01*
X152204500Y-73033902D01*
X152167553Y-72800631D01*
X152116407Y-72643221D01*
X152094568Y-72576008D01*
X152094566Y-72576005D01*
X152094566Y-72576003D01*
X151987342Y-72365566D01*
X151848517Y-72174490D01*
X151681510Y-72007483D01*
X151490433Y-71868657D01*
X151415391Y-71830421D01*
X151279996Y-71761433D01*
X151055368Y-71688446D01*
X150822097Y-71651500D01*
X150822092Y-71651500D01*
X148585908Y-71651500D01*
X148585903Y-71651500D01*
X148352631Y-71688446D01*
X148128003Y-71761433D01*
X147917566Y-71868657D01*
X147848748Y-71918657D01*
X147726490Y-72007483D01*
X147726488Y-72007485D01*
X147726487Y-72007485D01*
X147559485Y-72174487D01*
X147559485Y-72174488D01*
X147559483Y-72174490D01*
X147523158Y-72224487D01*
X147420657Y-72365566D01*
X147313433Y-72576003D01*
X147240446Y-72800631D01*
X147203500Y-73033902D01*
X147203500Y-73270097D01*
X144354500Y-73270097D01*
X144354500Y-73083902D01*
X144317553Y-72850631D01*
X144250161Y-72643221D01*
X144244568Y-72626008D01*
X144244566Y-72626005D01*
X144244566Y-72626003D01*
X144153585Y-72447444D01*
X144137343Y-72415567D01*
X143998517Y-72224490D01*
X143831510Y-72057483D01*
X143640433Y-71918657D01*
X143429996Y-71811433D01*
X143205368Y-71738446D01*
X142972097Y-71701500D01*
X142972092Y-71701500D01*
X142735908Y-71701500D01*
X142735903Y-71701500D01*
X142502631Y-71738446D01*
X142278003Y-71811433D01*
X142067566Y-71918657D01*
X141979868Y-71982374D01*
X141876490Y-72057483D01*
X141876488Y-72057485D01*
X141876487Y-72057485D01*
X141709485Y-72224487D01*
X141709485Y-72224488D01*
X141709483Y-72224490D01*
X141668058Y-72281507D01*
X141570657Y-72415566D01*
X141463433Y-72626003D01*
X141390446Y-72850631D01*
X141353500Y-73083902D01*
X141353500Y-74820097D01*
X139632595Y-74820097D01*
X139687181Y-74720131D01*
X139783938Y-74460714D01*
X139842792Y-74190168D01*
X139862544Y-73914000D01*
X139842792Y-73637832D01*
X139783938Y-73367286D01*
X139687181Y-73107869D01*
X139683539Y-73101200D01*
X139554492Y-72864868D01*
X139554487Y-72864860D01*
X139388571Y-72643221D01*
X139388555Y-72643203D01*
X139192796Y-72447444D01*
X139192778Y-72447428D01*
X138971139Y-72281512D01*
X138971131Y-72281507D01*
X138728136Y-72148821D01*
X138728132Y-72148819D01*
X138629781Y-72112136D01*
X138468714Y-72052062D01*
X138468710Y-72052061D01*
X138468707Y-72052060D01*
X138198176Y-71993209D01*
X138198169Y-71993208D01*
X137922001Y-71973456D01*
X137921999Y-71973456D01*
X137645830Y-71993208D01*
X137645823Y-71993209D01*
X137375292Y-72052060D01*
X137375287Y-72052061D01*
X137375286Y-72052062D01*
X137312567Y-72075454D01*
X137115867Y-72148819D01*
X137115863Y-72148821D01*
X136872868Y-72281507D01*
X136872860Y-72281512D01*
X136651221Y-72447428D01*
X136651203Y-72447444D01*
X136455444Y-72643203D01*
X136455428Y-72643221D01*
X136289512Y-72864860D01*
X136289507Y-72864868D01*
X136156821Y-73107863D01*
X136156819Y-73107867D01*
X136060060Y-73367292D01*
X136001209Y-73637823D01*
X136001208Y-73637830D01*
X135981456Y-73913998D01*
X135981456Y-73914001D01*
X132927139Y-73914001D01*
X132930781Y-73907331D01*
X133027538Y-73647914D01*
X133086392Y-73377368D01*
X133106144Y-73101200D01*
X133086392Y-72825032D01*
X133027538Y-72554486D01*
X132930781Y-72295069D01*
X132923378Y-72281512D01*
X132798092Y-72052068D01*
X132798087Y-72052060D01*
X132632171Y-71830421D01*
X132632155Y-71830403D01*
X132436396Y-71634644D01*
X132436378Y-71634628D01*
X132214739Y-71468712D01*
X132214731Y-71468707D01*
X131971736Y-71336021D01*
X131971732Y-71336019D01*
X131873381Y-71299336D01*
X131712314Y-71239262D01*
X131712310Y-71239261D01*
X131712307Y-71239260D01*
X131441776Y-71180409D01*
X131441769Y-71180408D01*
X131165601Y-71160656D01*
X131165599Y-71160656D01*
X130889430Y-71180408D01*
X130889423Y-71180409D01*
X130618892Y-71239260D01*
X130618887Y-71239261D01*
X130618886Y-71239262D01*
X130556167Y-71262654D01*
X130359467Y-71336019D01*
X130359463Y-71336021D01*
X130116468Y-71468707D01*
X130116460Y-71468712D01*
X129894821Y-71634628D01*
X129894803Y-71634644D01*
X129699044Y-71830403D01*
X129699028Y-71830421D01*
X129533112Y-72052060D01*
X129533107Y-72052068D01*
X129400421Y-72295063D01*
X129400419Y-72295067D01*
X129303660Y-72554492D01*
X129244809Y-72825023D01*
X129244808Y-72825030D01*
X129225056Y-73101198D01*
X129225056Y-73101201D01*
X126170740Y-73101201D01*
X126170739Y-73101200D01*
X126041692Y-72864868D01*
X126041687Y-72864860D01*
X125875771Y-72643221D01*
X125875755Y-72643203D01*
X125679996Y-72447444D01*
X125679978Y-72447428D01*
X125458339Y-72281512D01*
X125458331Y-72281507D01*
X125215336Y-72148821D01*
X125215332Y-72148819D01*
X125116981Y-72112136D01*
X124955914Y-72052062D01*
X124955910Y-72052061D01*
X124955907Y-72052060D01*
X124685376Y-71993209D01*
X124685369Y-71993208D01*
X124409201Y-71973456D01*
X124409199Y-71973456D01*
X124133030Y-71993208D01*
X124133023Y-71993209D01*
X123862492Y-72052060D01*
X123862487Y-72052061D01*
X123862486Y-72052062D01*
X123799767Y-72075454D01*
X123603067Y-72148819D01*
X123603063Y-72148821D01*
X123360068Y-72281507D01*
X123360060Y-72281512D01*
X123138421Y-72447428D01*
X123138403Y-72447444D01*
X122942644Y-72643203D01*
X122942628Y-72643221D01*
X122776712Y-72864860D01*
X122776707Y-72864868D01*
X122644021Y-73107863D01*
X122644019Y-73107867D01*
X122547260Y-73367292D01*
X122488409Y-73637823D01*
X122488408Y-73637830D01*
X122468656Y-73913998D01*
X122468656Y-73914001D01*
X120353084Y-73914001D01*
X120353084Y-73913996D01*
X120332764Y-73565130D01*
X120332763Y-73565119D01*
X120272085Y-73220997D01*
X120272083Y-73220988D01*
X120171854Y-72886199D01*
X120033444Y-72565329D01*
X120033438Y-72565316D01*
X119858710Y-72262677D01*
X119650032Y-71982374D01*
X119641850Y-71973702D01*
X118391678Y-73223873D01*
X118301446Y-73099680D01*
X118162320Y-72960554D01*
X118038125Y-72870320D01*
X119285180Y-71623265D01*
X119285179Y-71623264D01*
X119142519Y-71503557D01*
X118850538Y-71311519D01*
X118538260Y-71154685D01*
X118538254Y-71154683D01*
X118209869Y-71035161D01*
X118209866Y-71035160D01*
X117869828Y-70954570D01*
X117522723Y-70914000D01*
X117173277Y-70914000D01*
X116826172Y-70954570D01*
X116826170Y-70954570D01*
X116486133Y-71035160D01*
X116486130Y-71035161D01*
X116157745Y-71154683D01*
X116157739Y-71154685D01*
X115845461Y-71311519D01*
X115553480Y-71503557D01*
X115410819Y-71623264D01*
X115410818Y-71623265D01*
X116657874Y-72870320D01*
X116533680Y-72960554D01*
X116394554Y-73099680D01*
X116304320Y-73223873D01*
X115054148Y-71973701D01*
X115054147Y-71973702D01*
X115045976Y-71982363D01*
X115045972Y-71982368D01*
X114837289Y-72262677D01*
X114662561Y-72565316D01*
X114662555Y-72565329D01*
X114524145Y-72886199D01*
X114423916Y-73220988D01*
X114423914Y-73220997D01*
X114363236Y-73565119D01*
X114363235Y-73565130D01*
X114342916Y-73913996D01*
X114342916Y-73914003D01*
X113284000Y-73914003D01*
X113284000Y-68712000D01*
X113303685Y-68644961D01*
X113356489Y-68599206D01*
X113408000Y-68588000D01*
X202568000Y-68588000D01*
X202635039Y-68607685D01*
G37*
%TD.AperFunction*%
%TD*%
M02*
