M48
; DRILL file {KiCad 8.0.1} date 2024-04-03T08:14:32+1000
; FORMAT={-:-/ absolute / inch / decimal}
; #@! TF.CreationDate,2024-04-03T08:14:32+10:00
; #@! TF.GenerationSoftware,Kicad,Pcbnew,8.0.1
; #@! TF.FileFunction,Plated,1,2,PTH
FMAT,2
INCH
; #@! TA.AperFunction,Plated,PTH,ViaDrill
T1C0.0157
; #@! TA.AperFunction,Plated,PTH,ComponentDrill
T2C0.0315
; #@! TA.AperFunction,Plated,PTH,ComponentDrill
T3C0.0374
; #@! TA.AperFunction,Plated,PTH,ComponentDrill
T4C0.0380
; #@! TA.AperFunction,Plated,PTH,ComponentDrill
T5C0.0394
; #@! TA.AperFunction,Plated,PTH,ComponentDrill
T6C0.0906
; #@! TA.AperFunction,Plated,PTH,ComponentDrill
T7C0.0930
; #@! TA.AperFunction,Plated,PTH,ComponentDrill
T8C0.0984
%
G90
G05
T1
X7.33Y-3.62
X7.33Y-3.66
T2
X5.76Y-3.0237
X5.76Y-3.1339
X5.8427Y-3.0237
X5.945Y-3.0237
X6.0277Y-3.0237
X6.0277Y-3.1339
T3
X6.4722Y-3.201
X6.5706Y-3.201
X6.6494Y-3.201
X6.7478Y-3.201
X7.1722Y-3.201
X7.2706Y-3.201
X7.3494Y-3.201
X7.4478Y-3.201
T4
X5.032Y-3.028
X5.032Y-3.126
X5.113Y-3.028
X5.113Y-3.126
X5.196Y-3.126
X5.215Y-3.028
X5.296Y-3.028
X5.296Y-3.126
T5
X7.71Y-3.41
X7.71Y-3.51
X7.71Y-3.61
X7.71Y-3.71
X7.71Y-3.81
X7.71Y-3.91
X7.71Y-4.01
X7.71Y-4.11
X7.71Y-4.21
X7.81Y-3.41
X7.81Y-3.51
X7.81Y-3.61
X7.81Y-3.71
X7.81Y-3.81
X7.81Y-3.91
X7.81Y-4.01
X7.81Y-4.11
X7.81Y-4.21
T6
X6.3513Y-3.0943
X6.8687Y-3.0943
X7.0513Y-3.0943
X7.5687Y-3.0943
T7
X4.898Y-2.91
X5.164Y-2.878
X5.43Y-2.91
T8
X4.62Y-2.91
X7.82Y-2.91
T5
G00X5.6242Y-2.941
M15
G01X5.6242Y-2.882
M16
G05
G00X5.9332Y-2.88
M15
G01X5.8545Y-2.88
M16
G05
G00X6.1635Y-2.941
M15
G01X6.1635Y-2.882
M16
G05
M30
