%TF.GenerationSoftware,KiCad,Pcbnew,8.0.1*%
%TF.CreationDate,2024-04-03T08:14:29+10:00*%
%TF.ProjectId,Asus ATX USB PS2 Breakout,41737573-2041-4545-9820-555342205053,rev?*%
%TF.SameCoordinates,Original*%
%TF.FileFunction,Legend,Bot*%
%TF.FilePolarity,Positive*%
%FSLAX46Y46*%
G04 Gerber Fmt 4.6, Leading zero omitted, Abs format (unit mm)*
G04 Created by KiCad (PCBNEW 8.0.1) date 2024-04-03 08:14:29*
%MOMM*%
%LPD*%
G01*
G04 APERTURE LIST*
%ADD10C,0.300000*%
%ADD11C,0.508000*%
G04 APERTURE END LIST*
D10*
X140266917Y-107300828D02*
X140266917Y-108372257D01*
X140266917Y-108372257D02*
X140338346Y-108586542D01*
X140338346Y-108586542D02*
X140481203Y-108729400D01*
X140481203Y-108729400D02*
X140695489Y-108800828D01*
X140695489Y-108800828D02*
X140838346Y-108800828D01*
X138838346Y-108800828D02*
X139552632Y-108800828D01*
X139552632Y-108800828D02*
X139552632Y-107300828D01*
X137481203Y-108657971D02*
X137552631Y-108729400D01*
X137552631Y-108729400D02*
X137766917Y-108800828D01*
X137766917Y-108800828D02*
X137909774Y-108800828D01*
X137909774Y-108800828D02*
X138124060Y-108729400D01*
X138124060Y-108729400D02*
X138266917Y-108586542D01*
X138266917Y-108586542D02*
X138338346Y-108443685D01*
X138338346Y-108443685D02*
X138409774Y-108157971D01*
X138409774Y-108157971D02*
X138409774Y-107943685D01*
X138409774Y-107943685D02*
X138338346Y-107657971D01*
X138338346Y-107657971D02*
X138266917Y-107515114D01*
X138266917Y-107515114D02*
X138124060Y-107372257D01*
X138124060Y-107372257D02*
X137909774Y-107300828D01*
X137909774Y-107300828D02*
X137766917Y-107300828D01*
X137766917Y-107300828D02*
X137552631Y-107372257D01*
X137552631Y-107372257D02*
X137481203Y-107443685D01*
X136409774Y-107300828D02*
X136409774Y-108372257D01*
X136409774Y-108372257D02*
X136481203Y-108586542D01*
X136481203Y-108586542D02*
X136624060Y-108729400D01*
X136624060Y-108729400D02*
X136838346Y-108800828D01*
X136838346Y-108800828D02*
X136981203Y-108800828D01*
X134981203Y-108800828D02*
X135695489Y-108800828D01*
X135695489Y-108800828D02*
X135695489Y-107300828D01*
X133624060Y-108657971D02*
X133695488Y-108729400D01*
X133695488Y-108729400D02*
X133909774Y-108800828D01*
X133909774Y-108800828D02*
X134052631Y-108800828D01*
X134052631Y-108800828D02*
X134266917Y-108729400D01*
X134266917Y-108729400D02*
X134409774Y-108586542D01*
X134409774Y-108586542D02*
X134481203Y-108443685D01*
X134481203Y-108443685D02*
X134552631Y-108157971D01*
X134552631Y-108157971D02*
X134552631Y-107943685D01*
X134552631Y-107943685D02*
X134481203Y-107657971D01*
X134481203Y-107657971D02*
X134409774Y-107515114D01*
X134409774Y-107515114D02*
X134266917Y-107372257D01*
X134266917Y-107372257D02*
X134052631Y-107300828D01*
X134052631Y-107300828D02*
X133909774Y-107300828D01*
X133909774Y-107300828D02*
X133695488Y-107372257D01*
X133695488Y-107372257D02*
X133624060Y-107443685D01*
X132552631Y-107300828D02*
X132552631Y-108372257D01*
X132552631Y-108372257D02*
X132624060Y-108586542D01*
X132624060Y-108586542D02*
X132766917Y-108729400D01*
X132766917Y-108729400D02*
X132981203Y-108800828D01*
X132981203Y-108800828D02*
X133124060Y-108800828D01*
X131124060Y-108800828D02*
X131838346Y-108800828D01*
X131838346Y-108800828D02*
X131838346Y-107300828D01*
X129766917Y-108657971D02*
X129838345Y-108729400D01*
X129838345Y-108729400D02*
X130052631Y-108800828D01*
X130052631Y-108800828D02*
X130195488Y-108800828D01*
X130195488Y-108800828D02*
X130409774Y-108729400D01*
X130409774Y-108729400D02*
X130552631Y-108586542D01*
X130552631Y-108586542D02*
X130624060Y-108443685D01*
X130624060Y-108443685D02*
X130695488Y-108157971D01*
X130695488Y-108157971D02*
X130695488Y-107943685D01*
X130695488Y-107943685D02*
X130624060Y-107657971D01*
X130624060Y-107657971D02*
X130552631Y-107515114D01*
X130552631Y-107515114D02*
X130409774Y-107372257D01*
X130409774Y-107372257D02*
X130195488Y-107300828D01*
X130195488Y-107300828D02*
X130052631Y-107300828D01*
X130052631Y-107300828D02*
X129838345Y-107372257D01*
X129838345Y-107372257D02*
X129766917Y-107443685D01*
X128695488Y-107300828D02*
X128695488Y-108372257D01*
X128695488Y-108372257D02*
X128766917Y-108586542D01*
X128766917Y-108586542D02*
X128909774Y-108729400D01*
X128909774Y-108729400D02*
X129124060Y-108800828D01*
X129124060Y-108800828D02*
X129266917Y-108800828D01*
X127266917Y-108800828D02*
X127981203Y-108800828D01*
X127981203Y-108800828D02*
X127981203Y-107300828D01*
X125909774Y-108657971D02*
X125981202Y-108729400D01*
X125981202Y-108729400D02*
X126195488Y-108800828D01*
X126195488Y-108800828D02*
X126338345Y-108800828D01*
X126338345Y-108800828D02*
X126552631Y-108729400D01*
X126552631Y-108729400D02*
X126695488Y-108586542D01*
X126695488Y-108586542D02*
X126766917Y-108443685D01*
X126766917Y-108443685D02*
X126838345Y-108157971D01*
X126838345Y-108157971D02*
X126838345Y-107943685D01*
X126838345Y-107943685D02*
X126766917Y-107657971D01*
X126766917Y-107657971D02*
X126695488Y-107515114D01*
X126695488Y-107515114D02*
X126552631Y-107372257D01*
X126552631Y-107372257D02*
X126338345Y-107300828D01*
X126338345Y-107300828D02*
X126195488Y-107300828D01*
X126195488Y-107300828D02*
X125981202Y-107372257D01*
X125981202Y-107372257D02*
X125909774Y-107443685D01*
D11*
%TO.C,J3*%
X122643900Y-76911200D02*
G75*
G02*
X121881900Y-76911200I-381000J0D01*
G01*
X121881900Y-76911200D02*
G75*
G02*
X122643900Y-76911200I381000J0D01*
G01*
%TD*%
M02*
